<svg width="165" height="130" viewBox="0 0 165 130" fill="none" xmlns="http://www.w3.org/2000/svg">
<g clip-path="url(#clip0_1_2329)">
<path d="M150.886 25.5337H147.5V42.3403H150.886V25.5337Z" fill="#9BA3FF"/>
<path d="M156.193 31.1829H152.807V42.34H156.193V31.1829Z" fill="#9BA3FF"/>
<path d="M161.507 36.5074H158.121V42.3403H161.507V36.5074Z" fill="#9BA3FF"/>
</g>
<g clip-path="url(#clip1_1_2329)">
<path d="M86 129.339C105.054 129.339 120.5 126.684 120.5 123.408C120.5 120.132 105.054 117.476 86 117.476C66.9462 117.476 51.5 120.132 51.5 123.408C51.5 126.684 66.9462 129.339 86 129.339Z" fill="#808AFF"/>
</g>
<path d="M80.1817 46.4491C80.1817 46.4491 78.8302 61.2197 84.4285 60.9972C90.4339 60.7553 88.8185 46.4491 88.8185 46.4491C88.0337 44.1432 87.721 42.7758 88.0727 40.3571H80.7809C81.1327 42.7758 80.9633 44.1432 80.1817 46.4491Z" fill="#FDBCA0"/>
<path d="M80.9274 43.2142C81.7546 43.4593 82.5883 43.6851 83.4514 43.756C84.2688 43.8238 85.109 43.7722 85.9232 43.6851C86.6006 43.6109 87.3236 43.4916 88.001 43.2691C87.8935 42.3919 87.9098 41.4889 88.0759 40.3536H80.7841C80.9437 41.4663 80.9925 42.3564 80.9274 43.2142Z" fill="#F0A38B"/>
<path d="M84.4283 42.3727C86.5094 42.3727 88.5122 41.56 89.9778 40.0958C91.7234 38.3543 93.0912 36.4128 93.4918 34.1327C94.0063 31.2044 93.0065 28.2793 90.8245 25.925H78.0288C75.8468 28.2761 74.847 31.2044 75.3616 34.1327C75.7621 36.4128 77.1332 38.3543 78.8756 40.0958C80.3444 41.5567 82.3473 42.3727 84.4283 42.3727Z" fill="#FDBCA0"/>
<path d="M85.0635 48.1714C84.7997 48.4584 84.5522 48.7712 84.3177 49.084C84.0344 48.8905 83.8097 48.6551 83.5622 48.4132C83.5394 48.3907 83.4938 48.4132 83.5035 48.4455C83.6436 48.826 83.9367 49.1357 84.2363 49.4001C84.3014 49.4549 84.3926 49.4614 84.4578 49.4001C84.7737 49.0937 85.0831 48.7357 85.3273 48.3681C85.4315 48.2165 85.1905 48.0327 85.0635 48.1714Z" fill="#DF8370"/>
<path d="M92.1046 47.607C90.1603 47.7714 88.2421 48.0843 86.35 48.5616C86.236 48.5906 86.2848 48.7615 86.3988 48.7357C88.2812 48.3229 90.1831 48.0423 92.1046 47.9133C92.3065 47.9004 92.3033 47.5908 92.1046 47.607Z" fill="#DF8370"/>
<path d="M76.7491 47.607C78.6934 47.7714 80.6116 48.0843 82.5037 48.5616C82.6177 48.5906 82.5689 48.7615 82.4549 48.7357C80.5725 48.3229 78.6706 48.0423 76.7491 47.9133C76.5504 47.9004 76.5504 47.5908 76.7491 47.607Z" fill="#DF8370"/>
<path d="M77.0844 21.0553C74.365 22.5969 72.4501 25.0253 72.4175 28.2891C72.3849 31.9688 76.9118 37.8287 76.8499 37.6836C75.3453 34.1038 74.9512 29.1759 78.7062 26.7088C79.0808 26.4637 79.5497 26.3218 79.8852 26.0348C79.8754 24.0901 78.7909 22.2067 77.0844 21.0553Z" fill="#3F4553"/>
<path d="M91.5049 21.0553C94.2243 22.5969 96.1392 25.0253 96.1718 28.2891C96.2044 31.9688 93.98 35.2422 91.7654 38.0222C92.3289 36.8096 93.6348 29.1727 89.8798 26.7088C89.5053 26.4637 89.0363 26.3218 88.7009 26.0348C88.7139 24.0901 89.8016 22.2067 91.5049 21.0553Z" fill="#424495"/>
<path d="M130.55 19.1075C128.473 18.0851 126.046 17.8658 123.786 18.3206C122.692 18.5399 121.656 18.9237 120.669 19.4429C120.015 19.7847 119.35 20.2749 118.588 20.333C117.663 20.4007 116.853 19.8041 116.165 19.2752C114.029 17.6304 111.857 16.1888 109.108 15.7922C107.779 15.5987 106.294 15.7406 105.265 16.5468C104.21 15.1665 102.637 14.1829 100.904 13.8217C98.6116 13.3444 96.4328 14.0248 94.6319 15.3922C93.6158 14.8988 91.8376 14.1893 91.6129 14.128C84.8389 12.2833 75.5898 16.9628 76.7882 24.8545C77.8174 31.6367 86.49 34.7714 92.4987 33.3782C93.7949 35.8066 96.9018 36.371 99.2955 35.1068C99.4779 35.2455 99.6603 35.3842 99.8459 35.5196C103.666 38.2931 108.111 40.0959 112.912 39.2768C114.736 38.9639 116.442 38.3125 118.012 37.3772C119.504 38.4866 121.467 38.8382 123.275 37.9803C124.62 37.345 125.522 36.1711 125.844 34.8424C125.867 34.8424 125.89 34.8424 125.913 34.8424C129.905 34.794 134.139 32.83 135.159 28.6858C136.087 24.919 134.022 20.8135 130.55 19.1075Z" fill="#4E5567"/>
<path d="M112.397 17.8788C113.71 18.9398 114.488 20.3943 113.671 21.9971C113.006 23.3033 111.811 24.2547 110.941 25.4124C109.922 26.767 109.746 28.5052 111.417 29.4953C113.062 30.4693 115.123 29.2567 116.494 28.3375C118.188 27.1991 120.005 23.9064 121.464 22.4938C127.945 16.2211 134.38 22.926 134.406 22.9485C133.566 21.3167 132.224 19.9331 130.55 19.1075C128.472 18.0852 126.046 17.8659 123.786 18.3206C122.692 18.5399 121.656 18.9237 120.669 19.4429C120.015 19.7848 119.35 20.275 118.588 20.333C117.663 20.4008 116.852 19.8041 116.165 19.2752C114.029 17.6305 111.857 16.1889 109.108 15.7922C107.808 15.6051 106.359 15.7406 105.333 16.5017C107.571 15.6406 110.603 16.4243 112.397 17.8788Z" fill="#3F4553"/>
<path d="M129.658 33.7782C128.072 33.962 126.587 33.875 125.128 33.2332C124.499 34.8489 123.213 36.4808 121.395 36.7356C120.174 36.9065 118.731 36.5292 118.481 35.2488C109.896 42.1697 100.272 34.449 99.3441 33.001C96.667 34.7296 93.2931 32.6204 92.2932 29.9211C90.2545 30.7048 87.9032 30.4629 85.9231 29.6212C82.2332 28.057 80.188 23.7452 81.4777 19.9396C82.5524 16.7759 85.415 14.6119 88.5871 13.7315C82.4026 13.696 75.7621 18.0949 76.788 24.8546C77.8171 31.6368 86.4865 34.7715 92.4984 33.3783C93.7946 35.8068 96.9015 36.3711 99.2952 35.1069C99.4776 35.2456 99.66 35.3843 99.8456 35.5197C103.666 38.2933 108.111 40.096 112.912 39.2769C114.735 38.9641 116.442 38.3126 118.012 37.3773C119.503 38.4868 121.467 38.8383 123.274 37.9804C124.62 37.3451 125.522 36.1712 125.844 34.8425C125.867 34.8425 125.89 34.8425 125.912 34.8425C127.818 34.8199 129.775 34.3587 131.416 33.4364C130.84 33.6073 130.241 33.7105 129.658 33.7782Z" fill="#3F4553"/>
<path d="M82.142 35.8615C81.0022 36.0486 79.1491 36.1099 78.0972 34.994C77.8887 34.7715 77.6054 35.023 77.8659 35.2455C77.9083 35.281 77.9506 35.3133 77.9929 35.3455C77.8692 35.381 77.7389 35.3971 77.6021 35.3874C77.5989 35.3874 77.5989 35.3907 77.6021 35.3939C77.7682 35.4487 77.9376 35.4648 78.1037 35.4326C78.1069 35.4358 78.1102 35.439 78.1135 35.439C77.9702 35.5326 77.7975 35.5713 77.6282 35.6261C77.6249 35.6261 77.6249 35.6293 77.6282 35.6325C77.8366 35.6519 78.0548 35.6261 78.2274 35.5164C78.247 35.5293 78.2665 35.5358 78.2861 35.5487C78.1558 35.6487 78.0092 35.7228 77.8431 35.7615C77.8269 35.7648 77.8301 35.7906 77.8464 35.7906C78.0581 35.8002 78.26 35.7486 78.4294 35.6325C78.4652 35.6519 78.5043 35.668 78.5401 35.6874C78.4196 35.7744 78.2958 35.8518 78.1558 35.9163C78.1428 35.9228 78.1493 35.9454 78.1623 35.9454C78.3479 35.9518 78.5108 35.8583 78.6573 35.7486C78.7029 35.7712 78.7485 35.7873 78.7974 35.8067C78.7355 35.868 78.6638 35.926 78.5954 35.9841C78.5857 35.9938 78.5954 36.0067 78.6085 36.0067C78.7257 35.9776 78.8332 35.9292 78.9244 35.8615C79.9698 36.2872 81.1943 36.3001 82.243 35.926C82.3537 35.8809 82.269 35.8422 82.142 35.8615Z" fill="#3F4553"/>
<path d="M86.8219 35.8615C87.9618 36.0486 89.8149 36.1099 90.8668 34.994C91.0752 34.7715 91.3585 35.023 91.098 35.2455C91.0557 35.281 91.0133 35.3133 90.971 35.3455C91.098 35.381 91.225 35.3971 91.3618 35.3874C91.3651 35.3874 91.3651 35.3907 91.3618 35.3939C91.1957 35.4487 91.0264 35.4648 90.8603 35.4326C90.857 35.4358 90.8538 35.439 90.8505 35.439C90.9938 35.5326 91.1664 35.5713 91.3357 35.6261C91.339 35.6261 91.339 35.6293 91.3357 35.6325C91.1273 35.6519 90.9091 35.6261 90.7365 35.5164C90.717 35.5293 90.6974 35.5358 90.6779 35.5487C90.8082 35.6487 90.9547 35.7228 91.1208 35.7615C91.1371 35.7648 91.1338 35.7906 91.1175 35.7906C90.9059 35.8002 90.7039 35.7486 90.5346 35.6325C90.4988 35.6519 90.4597 35.668 90.4239 35.6874C90.5444 35.7744 90.6681 35.8518 90.8082 35.9163C90.8212 35.9228 90.8147 35.9454 90.8016 35.9454C90.616 35.9518 90.4532 35.8583 90.3066 35.7486C90.261 35.7712 90.2154 35.7873 90.1698 35.8067C90.2317 35.868 90.3034 35.926 90.3718 35.9841C90.3815 35.9938 90.3718 36.0067 90.3587 36.0067C90.2415 35.9776 90.134 35.9292 90.0428 35.8615C88.9974 36.2872 87.7729 36.3001 86.721 35.926C86.6135 35.8809 86.6949 35.8422 86.8219 35.8615Z" fill="#3F4553"/>
<path d="M85.2001 38.2126C84.666 38.4868 84.1352 38.5964 83.5848 38.2674C83.5457 38.2449 83.5001 38.2997 83.5359 38.3319C84.0082 38.748 84.8484 38.8544 85.3206 38.3674C85.3988 38.2836 85.3011 38.161 85.2001 38.2126Z" fill="#3F4553"/>
<path d="M86.4213 40.1152C85.7536 40.3119 85.0958 40.3861 84.4444 40.3571C83.7931 40.3861 83.1352 40.3119 82.4676 40.1152C82.4513 40.1088 82.4383 40.1378 82.4546 40.1442C83.0961 40.4151 83.7703 40.5603 84.4444 40.5764C85.1186 40.5603 85.7927 40.4151 86.4343 40.1442C86.4506 40.1378 86.4375 40.112 86.4213 40.1152Z" fill="#3F4553"/>
<path d="M81.383 37.4418C81.3277 37.416 81.2691 37.3934 81.2104 37.3773C80.4647 37.187 79.5821 36.8258 78.8037 36.958C78.2533 37.0516 78.1263 37.7127 78.439 38.1029C78.7744 38.5222 79.4323 38.6415 79.9403 38.6802C80.4516 38.7189 81.2528 38.7737 81.6338 38.3771C81.979 38.0191 81.7445 37.6159 81.383 37.4418Z" fill="#FBAD8B"/>
<path d="M87.4794 37.4418C87.5348 37.416 87.5934 37.3934 87.6521 37.3773C88.3978 37.187 89.2804 36.8258 90.0588 36.958C90.6092 37.0516 90.7362 37.7127 90.4235 38.1029C90.0881 38.5222 89.4302 38.6415 88.9222 38.6802C88.4109 38.7189 87.6097 38.7737 87.2287 38.3771C86.8835 38.0191 87.1212 37.6159 87.4794 37.4418Z" fill="#FBAD8B"/>
<path d="M74.5931 32.6138C73.8213 32.5009 72.994 32.817 73.1341 33.7232C73.2448 34.4456 74.0297 35.1648 75.2282 34.9487C74.9025 34.2005 74.6778 33.4136 74.5931 32.6138Z" fill="#F9CDB9"/>
<path d="M73.8472 33.3234C74.0589 33.1493 74.3879 33.0719 74.6712 33.117C74.6549 33.03 74.6451 32.9397 74.6321 32.8526C74.2446 32.8171 73.7886 32.9751 73.5672 33.2525C73.2219 33.6879 73.4825 34.1716 73.8635 34.4683C73.9189 34.5135 73.997 34.4425 73.9449 34.3877C73.6681 34.0974 73.476 33.6298 73.8472 33.3234Z" fill="#F8C4AB"/>
<path d="M74.8244 33.8071C74.6225 33.6265 74.3587 33.5265 74.0558 33.5394C73.9874 33.5426 73.9614 33.6555 74.0395 33.6652C74.3163 33.7039 74.5541 33.8458 74.7006 34.0651C74.5313 34.1554 74.4075 34.3521 74.5801 34.5134C74.7169 34.6424 74.9188 34.6714 75.111 34.652C75.0035 34.3747 74.9025 34.0941 74.8244 33.8071Z" fill="#F8C4AB"/>
<path d="M74.5248 34.7391C74.5216 34.7359 74.5151 34.7391 74.5183 34.7423C74.6421 35.0455 74.818 35.755 74.3946 35.9001C74.1112 35.9969 74.0852 35.6357 74.1275 35.4454C74.1666 35.2712 74.2643 35.0906 74.3457 34.9358C74.3457 34.9358 74.1503 34.8939 73.9712 34.8036C73.7269 35.01 73.639 35.3164 73.6814 35.6389C73.7204 35.9324 73.9093 36.2549 74.2448 36.2646C74.5444 36.2742 74.7593 36.0195 74.8049 35.7486C74.857 35.397 74.7137 35.0261 74.5248 34.7391Z" fill="#FDCA27"/>
<path d="M136.845 90.2805C135.015 88.1229 131.055 87.9488 128.456 87.6811C120.643 86.8748 112.632 87.0748 104.815 87.7005C100.924 88.0133 97.0514 88.4809 93.1955 89.0969C90.4044 89.5452 87.2878 89.858 84.5 90.7416C81.7122 89.858 78.5955 89.5419 75.8045 89.0969C71.9518 88.4777 68.0763 88.0101 64.1845 87.7005C56.3684 87.0748 48.3536 86.8748 40.5439 87.6811C37.9483 87.9488 33.9849 88.1229 32.1546 90.2805C30.3862 92.3638 32.5682 94.889 34.2487 96.2145C36.5707 98.0463 39.5181 98.9493 42.3319 99.7395C45.8654 100.726 49.4804 101.397 53.1149 101.907C69.3823 104.177 78.2145 102.503 86.7178 102.4C87.0435 102.81 87.3496 103.235 87.6297 103.677C96.2503 103.732 107.323 103.052 115.882 101.907C119.52 101.42 123.131 100.73 126.665 99.7395C129.482 98.9526 132.426 98.0495 134.748 96.2145C136.429 94.889 138.611 92.3638 136.845 90.2805Z" fill="#93BFA8"/>
<path d="M125.303 91.7738C125.574 91.4319 127.212 91.0094 127.857 90.7256C124.818 90.9675 121.767 91.3287 118.735 91.6383C112.967 92.2253 107.193 93.7378 101.728 95.6309C99.1129 96.5371 96.5042 97.4885 93.9054 98.4431C91.8471 99.1978 89.8117 100.023 87.8804 101.052C88.1768 100.962 88.4732 100.872 88.7695 100.784C91.8504 99.8879 104.405 93.1638 127.652 92.3349C127.114 92.2188 125.199 91.906 125.303 91.7738Z" fill="#66A986"/>
<path d="M44.0384 91.2995C43.7681 90.9577 42.1299 90.5352 41.4851 90.2514C44.5236 90.4933 47.5752 90.8545 50.6072 91.1641C56.3749 91.751 62.149 93.2636 67.6138 95.1567C70.229 96.0629 72.8376 97.0143 75.4365 97.9689C77.4948 98.7235 79.5302 99.5491 81.4614 100.578C81.1651 100.488 80.8687 100.397 80.5724 100.31C77.4915 99.4137 64.9368 92.6895 41.6903 91.8607C42.2244 91.7446 44.1393 91.4318 44.0384 91.2995Z" fill="#66A986"/>
<path d="M92.3585 98.4302C91.0493 97.911 89.6652 97.8981 88.3918 98.4367C86.2163 99.3623 83.5491 97.9433 81.2889 98.198C79.2079 98.4335 77.941 100.778 79.5335 102.274C79.9178 102.636 83.7803 104.022 89.8997 101.197C90.5706 100.888 91.2252 100.71 91.984 100.72C92.1599 100.723 92.326 100.888 92.5116 100.868C92.9089 100.82 93.2346 100.749 93.4561 100.368C93.9771 99.4719 93.1076 98.7269 92.3585 98.4302Z" fill="#FDB597"/>
<path d="M77.0844 103.187C78.1884 102.32 79.5139 101.913 80.885 102.071C83.2363 102.342 85.3825 100.227 87.6231 99.8299C89.6846 99.4655 91.5768 101.352 90.4825 103.242C90.2187 103.697 86.9164 106.119 80.2369 105.145C79.5041 105.038 78.8267 105.054 78.1037 105.277C77.9376 105.329 77.8236 105.535 77.638 105.567C77.2439 105.635 76.9117 105.657 76.5893 105.358C75.8338 104.645 76.4526 103.684 77.0844 103.187Z" fill="#FDBCA0"/>
<path d="M121.467 50.2063C120.714 50.5901 119.923 51.0222 119.184 51.4253C119.575 51.1093 121.744 48.9227 122.587 48.3842C122.678 48.3261 122.463 47.4392 120.245 49.1936C119.584 49.7161 118.803 50.245 118.181 50.8158C118.972 49.3291 119.633 47.823 120.669 46.462C120.711 46.4072 120.698 46.3459 120.662 46.304C120.451 46.1395 119.92 46.3266 119.682 46.5781C119.259 47.0232 117.65 48.7454 116.868 50.561C116.881 49.9386 116.826 48.9292 116.38 48.7228C116.1 48.5906 115.634 48.7647 115.334 48.7873C114.745 48.8292 113.973 48.9131 113.423 48.6809C113.341 48.6486 113.136 48.6228 113.211 48.8905C113.462 49.7677 114.699 49.8773 115.468 50.0708C115.728 50.6965 114.996 51.722 114.533 52.0317C113.781 52.538 112.683 52.0413 112.872 51.048C113.038 50.174 113.566 49.7774 113.1 48.9195C112.947 48.6357 112.289 48.3777 112.436 48.8357C112.814 50.0063 111.729 50.99 111.589 52.122C111.478 53.0185 111.957 53.8151 112.439 54.5343C112.41 54.6084 112.387 54.6826 112.361 54.7536C111.706 55.8759 111.198 57.0595 110.83 58.2979C111.67 58.572 114.139 58.3978 114.129 58.3785C114.139 58.3978 114.426 56.6628 115.084 55.9307C115.803 55.1277 116.709 54.5085 117.575 53.8764C119.395 52.5444 121.245 51.2512 123.121 49.9934C123.229 49.9257 123.141 49.3517 121.467 50.2063Z" fill="#FDBCA0"/>
<path d="M47.7314 50.2063C48.4837 50.5901 49.2751 51.0222 50.0144 51.4253C49.6236 51.1093 47.4546 48.9227 46.6111 48.3842C46.5199 48.3261 46.7349 47.4392 48.9527 49.1936C49.6138 49.7161 50.3954 50.245 51.0175 50.8158C50.2261 49.3291 49.565 47.823 48.5293 46.462C48.487 46.4072 48.5 46.3459 48.5358 46.304C48.7475 46.1395 49.2784 46.3266 49.5161 46.5781C49.9395 47.0232 51.5483 48.7454 52.3299 50.561C52.3169 49.9386 52.3723 48.9292 52.8184 48.7228C53.0985 48.5906 53.5642 48.7647 53.8638 48.7873C54.4533 48.8292 55.2251 48.9131 55.7755 48.6809C55.857 48.6486 56.0621 48.6228 55.9872 48.8905C55.7365 49.7677 54.4989 49.8773 53.7303 50.0708C53.4698 50.6965 54.2025 51.722 54.665 52.0317C55.4173 52.538 56.5148 52.0413 56.3259 51.048C56.1598 50.174 55.6322 49.7774 56.098 48.9195C56.251 48.6357 56.9089 48.3777 56.7623 48.8357C56.3845 50.0063 57.469 50.99 57.6091 52.122C57.7198 53.0185 57.2411 53.8151 56.7591 54.5343C56.7884 54.6084 56.8112 54.6826 56.8372 54.7536C57.4918 55.8759 57.9999 57.0595 58.3679 58.2979C57.5277 58.572 55.0591 58.3978 55.0688 58.3785C55.0591 58.3978 54.7725 56.6628 54.1146 55.9307C53.3949 55.1277 52.4895 54.5085 51.6232 53.8764C49.8027 52.5444 47.9529 51.2512 46.077 49.9934C45.9695 49.9257 46.0575 49.3517 47.7314 50.2063Z" fill="#FDBCA0"/>
<path d="M109.951 57.1563C108.73 60.2749 104.588 71.7882 102.858 76.6709C101.829 74.0586 99.0479 62.7162 96.7063 49.5484C95.9768 45.4559 91.3164 46.0396 88.8218 46.4492C88.6426 49.1969 85.9493 56.8144 84.5033 56.8306C83.0574 56.8144 80.1914 49.7355 80.1849 46.4492C77.6935 46.0396 73.0299 45.4559 72.3004 49.5484C69.9555 62.7162 67.1776 74.0619 66.1484 76.6709C64.4158 71.7882 60.2765 60.2749 59.0553 57.1563C57.4888 57.8884 55.7562 58.2915 54.0269 58.3915C55.3654 61.9164 59.7848 86.8781 66.2982 86.8781C69.1218 86.8781 70.9098 83.9079 73.7887 72.9041C73.932 74.7423 73.9809 78.2737 73.9092 81.9857C73.8571 84.6593 71.991 87.7489 69.4931 87.1522C68.9883 87.0329 68.3304 87.4102 68.9557 88.081C69.1251 88.2649 69.3433 88.4003 69.568 88.5035C73.5575 90.374 73.7138 93.1701 76.0684 94.7988C77.4916 95.7824 79.2437 96.092 80.9144 96.4274C82.7252 96.7886 84.5913 97.0595 86.4346 96.7854C89.4992 96.3306 91.8798 94.3021 94.4168 92.7154C95.8335 91.8285 97.273 91.119 98.9372 90.8771C103.22 90.2547 102.936 87.2619 102.041 87.3232C99.0414 87.5263 95.091 83.7402 95.0682 79.5734C95.0519 76.7999 95.1072 74.3392 95.218 72.9041C98.0969 83.9079 99.8849 86.8781 102.708 86.8781C109.222 86.8781 113.641 61.9164 114.98 58.3915C113.25 58.2915 111.518 57.8851 109.951 57.1563Z" fill="#F2EDE4"/>
<path d="M92.7203 68.0568C92.6877 68.0794 92.6616 68.102 92.6356 68.1245C92.1047 68.6373 91.6911 69.2533 91.17 69.7757C90.649 70.295 89.9748 70.7303 89.2355 70.7271C87.4606 70.7174 86.5715 68.6083 85.5033 67.5344C83.8619 65.8896 82.2694 69.6371 81.0481 70.3724C79.7943 71.127 78.9443 70.6723 78.0194 69.779C77.4527 69.2307 76.9707 68.6147 76.4464 68.0278C76.3096 67.873 75.9969 68.0375 76.0816 68.2374C76.6939 69.6951 78.078 72.1139 79.905 72.1526C81.0253 72.1752 81.9437 71.5398 82.6797 70.7594C83.0412 70.3756 84.0378 68.3148 84.6859 68.5857C84.8064 68.6373 84.8911 68.7437 84.9725 68.8469C85.2949 69.2662 85.5945 69.708 85.9397 70.1079C86.1189 70.3143 86.6367 70.6562 86.6367 70.94C87.3694 71.6785 88.3758 72.259 89.4147 72.1332C90.4764 72.0042 91.3166 71.1818 91.9321 70.3143C92.3685 69.6983 92.7365 69.034 93.0264 68.3374C93.0687 68.2374 93.1045 68.1116 93.0296 68.031C92.9482 67.9472 92.8245 67.9859 92.7203 68.0568Z" fill="#D9C9AC"/>
<g clip-path="url(#clip2_1_2329)">
<path d="M152.49 84.807L163.635 81.1138L158.048 64.9006L146.903 68.5937C146.466 68.7378 146.229 69.2019 146.38 69.6301L151.433 84.2908C151.58 84.7189 152.053 84.951 152.49 84.807Z" fill="#3F4553"/>
<path d="M152.498 84.4869L163.921 80.7017L158.538 65.0846L147.115 68.8699C146.833 68.9619 146.682 69.262 146.776 69.5421L151.812 84.1548C151.91 84.4309 152.216 84.5789 152.498 84.4869Z" fill="#DDDDE3"/>
<path d="M152.739 84.407L164.162 80.6218L158.779 65.0047L147.356 68.7899C147.074 68.882 146.923 69.1821 147.017 69.4622L152.053 84.0749C152.151 84.351 152.457 84.503 152.739 84.407Z" fill="#E2E5FF"/>
<path d="M153.355 84.5189L164.5 80.8257L158.913 64.6164L147.768 68.3096C147.331 68.4537 147.094 68.9178 147.245 69.346L152.298 84.0067C152.445 84.4348 152.918 84.6629 153.355 84.5189Z" fill="#4E5567"/>
<path d="M158.289 64.8236L158.049 64.903L163.636 81.1163L163.876 81.0369L158.289 64.8236Z" fill="#3F4553"/>
<path d="M159.881 77.4886L160.13 76.9684L160.652 77.2325L156.571 65.3927C156.497 65.1846 156.314 65.2006 156.102 65.2727C155.889 65.3447 155.73 65.4407 155.804 65.6488L159.881 77.4886Z" fill="#93BFA8"/>
<path d="M134.838 69.1224L142.34 60.4023L140.823 59.1486L133.322 67.8687L134.838 69.1224Z" fill="#3F4553"/>
<path d="M133.321 67.8657L134.835 69.1181L132.647 70.2985C132.574 70.3385 132.476 70.2545 132.5 70.1785L133.321 67.8657Z" fill="#F2EDE4"/>
<path d="M132.651 70.3024L133.243 69.9823L132.729 69.5541L132.509 70.1783C132.48 70.2543 132.578 70.3384 132.651 70.3024Z" fill="#3F4553"/>
<path d="M134.336 68.707L141.837 59.987L141.322 59.5614L133.821 68.2814L134.336 68.707Z" fill="#4E5567"/>
</g>
<g clip-path="url(#clip3_1_2329)">
<path d="M52.0028 -15C42.3335 -15 34.5 -7.25558 34.5 2.30368C34.5 11.8575 42.3335 19.6074 52.0028 19.6074C61.6665 19.6074 69.5055 11.8629 69.5055 2.30368C69.5 -7.25558 61.6665 -15 52.0028 -15ZM52.0028 16.6807C43.9708 16.6807 37.4603 10.2443 37.4603 2.30368C37.4603 -5.63694 43.9708 -12.0734 52.0028 -12.0734C60.0347 -12.0734 66.5452 -5.63694 66.5452 2.30368C66.5452 10.2443 60.0347 16.6807 52.0028 16.6807Z" fill="#808AFF"/>
<path d="M65.4209 7.84684C68.5195 0.521196 65.0244 -7.90074 57.6145 -10.9641C50.2046 -14.0274 41.6857 -10.5721 38.5872 -3.24648C35.4886 4.07917 38.9836 12.5011 46.3936 15.5644C53.8035 18.6278 62.3223 15.1725 65.4209 7.84684Z" fill="#AEB4FC"/>
<path d="M65.2383 2.33022C65.2383 1.32197 63.6506 1.31652 63.6506 2.33022C63.6506 3.34392 65.2383 3.34392 65.2383 2.33022Z" fill="#808AFF"/>
<path d="M51.969 15.3887C52.9888 15.3887 52.9943 13.8191 51.969 13.8191C50.9491 13.8191 50.9436 15.3887 51.969 15.3887Z" fill="#808AFF"/>
<path d="M38.7618 2.27108C38.7618 3.27932 40.3495 3.28477 40.3495 2.27108C40.3495 1.26283 38.7618 1.25738 38.7618 2.27108Z" fill="#808AFF"/>
<path d="M58.2544 6.50557C58.1607 6.50557 58.067 6.48377 57.9843 6.42927L51.7274 2.75054C51.5675 2.65789 51.4683 2.48349 51.4683 2.29819V-7.58807C51.4683 -7.87692 51.7053 -8.11127 51.9975 -8.11127C52.2897 -8.11127 52.5267 -7.87692 52.5267 -7.58807V2.00389L58.5245 5.53002C58.7781 5.67717 58.8608 5.99872 58.7064 6.24942C58.6127 6.41292 58.4363 6.50557 58.2544 6.50557Z" fill="#808AFF"/>
</g>
<path d="M17.1207 37.7991L16.7715 35.8406L14.7463 36.1818C14.425 35.2674 13.9013 34.4621 13.2239 33.807L14.4111 32.1625L12.749 31.0229L11.5688 32.6606C10.7168 32.2512 9.76706 32.026 8.77541 32.0328L8.41925 30.047L6.415 30.3882L6.76417 32.3672C5.82839 32.6811 5.00434 33.1929 4.33392 33.8548L2.65091 32.6947L1.48467 34.3188L3.1607 35.4721C2.74169 36.3046 2.51124 37.2327 2.51822 38.2017L0.5 38.5429L0.849173 40.5014L2.87438 40.1602C3.19562 41.0746 3.71938 41.8798 4.39677 42.5349L3.20959 44.1795L4.87165 45.3191L6.05186 43.6814C6.90384 44.0908 7.85359 44.316 8.84524 44.3092L9.2014 46.295L11.2057 45.9538L10.8565 43.9748C11.7923 43.6609 12.6163 43.1491 13.2867 42.4872L14.9697 43.6473L16.136 42.0231L14.46 40.8699C14.879 40.0374 15.1094 39.1093 15.1024 38.1403L17.1207 37.7991ZM9.13157 39.9896C8.105 40.167 7.12731 39.4914 6.94574 38.4883C6.76417 37.4852 7.45553 36.5298 8.4821 36.3524C9.50867 36.175 10.4864 36.8505 10.6679 37.8537C10.8495 38.8568 10.1651 39.8122 9.13157 39.9896Z" fill="#9BA3FF"/>
<path d="M36.2278 33.8479V31.3844H33.6788C33.4903 30.197 33.0224 29.1052 32.338 28.1635L34.1467 26.396L32.3659 24.6559L30.5642 26.4165C29.6074 25.7409 28.4971 25.2701 27.282 25.0722V22.5678H24.7609V25.0585C23.5458 25.2428 22.4215 25.7 21.4647 26.3687L19.656 24.6013L17.8752 26.3415L19.677 28.102C18.9856 29.0369 18.5037 30.1219 18.3012 31.3093H15.7383V33.7728H18.2872C18.4758 34.9602 18.9437 36.052 19.6281 36.9937L17.8194 38.7611L19.6001 40.5013L21.4019 38.7407C22.3586 39.4162 23.469 39.8871 24.6841 40.085V42.5894H27.2051V40.0986C28.4203 39.9144 29.5376 39.4572 30.5013 38.7884L32.31 40.5558L34.0908 38.8157L32.2891 37.0551C32.9805 36.1202 33.4623 35.0352 33.6648 33.8479H36.2278V33.8479ZM25.983 34.8715C24.6911 34.8715 23.6366 33.8479 23.6366 32.5786C23.6366 31.3161 24.6841 30.2857 25.983 30.2857C27.275 30.2857 28.3295 31.3093 28.3295 32.5786C28.3225 33.841 27.275 34.8715 25.983 34.8715Z" fill="#AEB4FC"/>
<g opacity="0.3">
<path d="M154.495 15.5457L135.766 11.3841C135.582 11.3445 135.466 11.1632 135.509 10.9818L137.867 0.601016C137.907 0.419649 138.091 0.304233 138.274 0.347102L157.003 4.51195C157.187 4.55152 157.303 4.73289 157.26 4.91426L154.898 15.2951C154.858 15.4731 154.678 15.5885 154.495 15.5457Z" fill="#ECECEC"/>
<path d="M135.819 11.1401C135.769 11.1302 135.739 11.0807 135.753 11.0346L138.114 0.653757C138.124 0.604293 138.174 0.574614 138.221 0.587805L156.95 4.75266C157 4.76255 157.03 4.81201 157.017 4.85818L154.655 15.239C154.645 15.2884 154.595 15.3181 154.548 15.3049L135.819 11.1401Z" fill="#F5F4F5"/>
<path d="M154.367 3.92289L140.914 0.931976L140.859 1.17326L154.312 4.16417L154.367 3.92289Z" fill="#706F6E"/>
<path d="M139.605 2.42451L138.985 2.28601C138.908 2.26952 138.858 2.19368 138.875 2.11453L138.971 1.68255C138.988 1.60671 139.065 1.55724 139.145 1.57373L139.765 1.71223C139.842 1.72872 139.892 1.80456 139.875 1.8837L139.779 2.31569C139.759 2.39153 139.682 2.44099 139.605 2.42451Z" fill="#585857"/>
<path d="M139.011 2.16405C139.001 2.16075 138.994 2.15086 138.998 2.14096L139.094 1.70898C139.098 1.69909 139.108 1.69249 139.118 1.69579L139.738 1.83429C139.748 1.83759 139.755 1.84748 139.752 1.85737L139.655 2.28935C139.652 2.29925 139.642 2.30584 139.632 2.30254L139.011 2.16405Z" fill="#5E5E5D"/>
<path d="M140.742 2.67522L140.122 2.53673C140.045 2.52024 139.995 2.44439 140.012 2.36525L140.109 1.93327C140.125 1.85742 140.202 1.80796 140.282 1.82445L140.902 1.96295C140.979 1.97943 141.029 2.05528 141.012 2.13442L140.916 2.5664C140.896 2.64555 140.819 2.69171 140.742 2.67522Z" fill="#585857"/>
<path d="M140.149 2.41785C140.139 2.41455 140.132 2.40465 140.135 2.39476L140.232 1.96278C140.235 1.95289 140.245 1.94629 140.255 1.94959L140.876 2.08809C140.886 2.09139 140.892 2.10128 140.889 2.11117L140.792 2.54315C140.789 2.55305 140.779 2.55964 140.769 2.55634L140.149 2.41785Z" fill="#5E5E5D"/>
<path d="M141.88 2.92902L141.259 2.79053C141.183 2.77404 141.133 2.69819 141.149 2.61905L141.246 2.18707C141.263 2.11122 141.339 2.06176 141.42 2.07825L142.04 2.21675C142.117 2.23323 142.167 2.30908 142.15 2.38822L142.053 2.8202C142.033 2.89605 141.957 2.94551 141.88 2.92902Z" fill="#585857"/>
<path d="M141.286 2.66856C141.276 2.66527 141.269 2.65537 141.273 2.64548L141.37 2.2135C141.373 2.2036 141.383 2.19701 141.393 2.20031L142.013 2.3388C142.023 2.3421 142.03 2.35199 142.027 2.36189L141.93 2.79387C141.927 2.80376 141.917 2.81036 141.907 2.80706L141.286 2.66856Z" fill="#5E5E5D"/>
<path d="M143.017 3.17951L142.397 3.04101C142.32 3.02453 142.27 2.94868 142.287 2.86954L142.384 2.43755C142.4 2.36171 142.477 2.31225 142.557 2.32874L143.177 2.46723C143.254 2.48372 143.304 2.55957 143.287 2.63871L143.191 3.07069C143.171 3.14983 143.094 3.1993 143.017 3.17951Z" fill="#585857"/>
<path d="M142.424 2.92236C142.414 2.91907 142.407 2.90917 142.41 2.89928L142.507 2.4673C142.51 2.4574 142.52 2.45081 142.53 2.4541L143.151 2.5926C143.161 2.5959 143.167 2.60579 143.164 2.61569L143.067 3.04767C143.064 3.05756 143.054 3.06416 143.044 3.06086L142.424 2.92236Z" fill="#5E5E5D"/>
<path d="M144.151 3.43356L143.531 3.29506C143.454 3.27857 143.404 3.20272 143.421 3.12358L143.518 2.6916C143.534 2.61575 143.611 2.56629 143.691 2.58278L144.311 2.72128C144.388 2.73776 144.438 2.81361 144.421 2.89275L144.325 3.32474C144.308 3.40388 144.231 3.45004 144.151 3.43356Z" fill="#585857"/>
<path d="M143.561 3.17639C143.551 3.17309 143.544 3.1632 143.548 3.15331L143.645 2.72132C143.648 2.71143 143.658 2.70484 143.668 2.70813L144.288 2.84663C144.298 2.84993 144.305 2.85982 144.302 2.86972L144.205 3.3017C144.202 3.31159 144.192 3.31819 144.182 3.31489L143.561 3.17639Z" fill="#5E5E5D"/>
<path d="M145.289 3.68736L144.668 3.54886C144.592 3.53237 144.542 3.45653 144.558 3.37738L144.655 2.9454C144.672 2.86955 144.748 2.82009 144.829 2.83658L145.449 2.97508C145.526 2.99157 145.576 3.06741 145.559 3.14655L145.462 3.57853C145.446 3.65438 145.369 3.70384 145.289 3.68736Z" fill="#585857"/>
<path d="M144.698 3.42688C144.688 3.42358 144.682 3.41369 144.685 3.4038L144.782 2.97181C144.785 2.96192 144.795 2.95532 144.805 2.95862L145.425 3.09712C145.435 3.10042 145.442 3.11031 145.439 3.1202L145.342 3.55219C145.339 3.56208 145.329 3.56867 145.319 3.56538L144.698 3.42688Z" fill="#5E5E5D"/>
<path d="M146.426 3.93807L145.806 3.79957C145.729 3.78309 145.679 3.70724 145.696 3.6281L145.793 3.19611C145.809 3.12027 145.886 3.07081 145.966 3.0873L146.586 3.22579C146.663 3.24228 146.713 3.31813 146.696 3.39727L146.6 3.82925C146.583 3.90839 146.503 3.95786 146.426 3.93807Z" fill="#585857"/>
<path d="M145.836 3.68091C145.826 3.67761 145.819 3.66772 145.822 3.65782L145.919 3.22584C145.922 3.21595 145.933 3.20935 145.943 3.21265L146.563 3.35115C146.573 3.35445 146.58 3.36434 146.576 3.37423L146.48 3.80622C146.476 3.81611 146.466 3.8227 146.456 3.81941L145.836 3.68091Z" fill="#5E5E5D"/>
<path d="M147.564 4.19208L146.943 4.05359C146.867 4.0371 146.817 3.96125 146.833 3.88211L146.93 3.45013C146.947 3.37428 147.024 3.32482 147.104 3.34131L147.724 3.47981C147.801 3.49629 147.851 3.57214 147.834 3.65128L147.737 4.08327C147.717 4.16241 147.641 4.20857 147.564 4.19208Z" fill="#585857"/>
<path d="M146.973 3.93471C146.963 3.93141 146.957 3.92152 146.96 3.91162L147.057 3.47964C147.06 3.46975 147.07 3.46315 147.08 3.46645L147.7 3.60495C147.71 3.60825 147.717 3.61814 147.714 3.62803L147.617 4.06002C147.614 4.06991 147.604 4.0765 147.594 4.07321L146.973 3.93471Z" fill="#5E5E5D"/>
<path d="M148.701 4.4459L148.081 4.3074C148.004 4.29091 147.954 4.21507 147.971 4.13593L148.068 3.70394C148.084 3.6281 148.161 3.57864 148.241 3.59512L148.861 3.73362C148.938 3.75011 148.988 3.82595 148.972 3.9051L148.875 4.33708C148.855 4.41292 148.778 4.46239 148.701 4.4459Z" fill="#585857"/>
<path d="M148.107 4.18542C148.097 4.18213 148.091 4.17223 148.094 4.16234L148.191 3.73036C148.194 3.72046 148.204 3.71387 148.214 3.71717L148.834 3.85566C148.844 3.85896 148.851 3.86885 148.848 3.87875L148.751 4.31073C148.748 4.32062 148.738 4.32722 148.728 4.32392L148.107 4.18542Z" fill="#5E5E5D"/>
<path d="M149.838 4.69662L149.218 4.55812C149.141 4.54163 149.091 4.46579 149.108 4.38664L149.205 3.95466C149.221 3.87882 149.298 3.82935 149.378 3.84584L149.999 3.98434C150.075 4.00083 150.125 4.07667 150.109 4.15581L150.012 4.5878C149.992 4.66694 149.915 4.7164 149.838 4.69662Z" fill="#585857"/>
<path d="M149.245 4.43944C149.235 4.43614 149.228 4.42625 149.231 4.41635L149.328 3.98437C149.331 3.97448 149.342 3.96788 149.352 3.97118L149.972 4.10968C149.982 4.11297 149.989 4.12287 149.985 4.13276L149.889 4.56474C149.885 4.57464 149.875 4.58123 149.865 4.57794L149.245 4.43944Z" fill="#5E5E5D"/>
<path d="M150.976 4.95042L150.356 4.81192C150.279 4.79543 150.229 4.71959 150.245 4.64044L150.342 4.20846C150.359 4.13261 150.436 4.08315 150.516 4.09964L151.136 4.23814C151.213 4.25463 151.263 4.33047 151.246 4.40961L151.149 4.8416C151.129 4.92074 151.053 4.9669 150.976 4.95042Z" fill="#585857"/>
<path d="M150.382 4.69325C150.372 4.68995 150.365 4.68006 150.368 4.67017L150.465 4.23818C150.469 4.22829 150.479 4.2217 150.489 4.22499L151.109 4.36349C151.119 4.36679 151.126 4.37668 151.122 4.38658L151.026 4.81856C151.022 4.82845 151.012 4.83505 151.002 4.83175L150.382 4.69325Z" fill="#5E5E5D"/>
<path d="M152.113 5.20444L151.493 5.06595C151.416 5.04946 151.366 4.97361 151.383 4.89447L151.479 4.46249C151.496 4.38664 151.573 4.33718 151.653 4.35367L152.273 4.49217C152.35 4.50865 152.4 4.5845 152.383 4.66364L152.287 5.09562C152.266 5.17147 152.19 5.22093 152.113 5.20444Z" fill="#585857"/>
<path d="M151.519 4.94374C151.509 4.94044 151.503 4.93055 151.506 4.92066L151.603 4.48867C151.606 4.47878 151.616 4.47218 151.626 4.47548L152.247 4.61398C152.257 4.61728 152.263 4.62717 152.26 4.63706L152.163 5.06905C152.16 5.07894 152.15 5.08554 152.14 5.08224L151.519 4.94374Z" fill="#5E5E5D"/>
<path d="M153.251 5.45493L152.63 5.31643C152.553 5.29995 152.503 5.2241 152.52 5.14496L152.617 4.71298C152.633 4.63713 152.71 4.58767 152.79 4.60416L153.411 4.74266C153.487 4.75914 153.537 4.83499 153.521 4.91413L153.424 5.34611C153.404 5.42525 153.327 5.47472 153.251 5.45493Z" fill="#585857"/>
<path d="M152.657 5.19778C152.647 5.19448 152.64 5.18459 152.644 5.1747L152.74 4.74272C152.744 4.73282 152.754 4.72623 152.764 4.72953L153.384 4.86802C153.394 4.87132 153.401 4.88122 153.397 4.89111L153.301 5.32309C153.297 5.33298 153.287 5.33958 153.277 5.33628L152.657 5.19778Z" fill="#5E5E5D"/>
<path d="M154.388 5.70875L153.768 5.57025C153.691 5.55376 153.641 5.47792 153.658 5.39877L153.754 4.96679C153.771 4.89095 153.848 4.84148 153.928 4.85797L154.548 4.99647C154.625 5.01296 154.675 5.0888 154.658 5.16794L154.562 5.59993C154.542 5.67907 154.465 5.72524 154.388 5.70875Z" fill="#585857"/>
<path d="M153.794 5.4518C153.784 5.4485 153.778 5.43861 153.781 5.42871L153.878 4.99673C153.881 4.98684 153.891 4.98024 153.901 4.98354L154.522 5.12204C154.532 5.12533 154.538 5.13523 154.535 5.14512L154.438 5.5771C154.435 5.587 154.425 5.59359 154.415 5.59029L153.794 5.4518Z" fill="#5E5E5D"/>
<path d="M155.522 5.96276L154.902 5.82426C154.825 5.80777 154.775 5.73193 154.792 5.65279L154.888 5.2208C154.905 5.14496 154.982 5.0955 155.062 5.11198L155.682 5.25048C155.759 5.26697 155.809 5.34281 155.792 5.42196L155.695 5.85394C155.679 5.92979 155.602 5.97925 155.522 5.96276Z" fill="#585857"/>
<path d="M154.932 5.70229C154.922 5.69899 154.915 5.68909 154.919 5.6792L155.015 5.24722C155.019 5.23733 155.029 5.23073 155.039 5.23403L155.659 5.37253C155.669 5.37582 155.676 5.38572 155.672 5.39561L155.576 5.82759C155.572 5.83749 155.562 5.84408 155.552 5.84078L154.932 5.70229Z" fill="#5E5E5D"/>
<path d="M138.971 2.43451L139.738 2.60598C139.825 2.62577 139.882 2.7115 139.862 2.80054L139.692 3.54579C139.672 3.63153 139.585 3.68759 139.495 3.6678L138.728 3.49633C138.641 3.47654 138.584 3.39081 138.604 3.30177L138.774 2.55652C138.794 2.47078 138.881 2.41472 138.971 2.43451Z" fill="#585857"/>
<path d="M138.758 3.37408C138.738 3.37078 138.725 3.3477 138.728 3.32791L138.898 2.58266C138.901 2.56287 138.925 2.54968 138.945 2.55298L139.712 2.72445C139.732 2.72775 139.745 2.75084 139.742 2.77062L139.572 3.51587C139.569 3.53566 139.545 3.54885 139.525 3.54555L138.758 3.37408Z" fill="#5E5E5D"/>
<path d="M140.282 2.72773L141.049 2.89921C141.136 2.91899 141.192 3.00473 141.172 3.09376L141.002 3.83902C140.982 3.92475 140.896 3.98081 140.806 3.96103L140.038 3.78955C139.952 3.76977 139.895 3.68403 139.915 3.595L140.085 2.84974C140.105 2.76071 140.192 2.70795 140.282 2.72773Z" fill="#585857"/>
<path d="M140.069 3.66757C140.049 3.66427 140.035 3.64119 140.039 3.6214L140.209 2.87615C140.212 2.85636 140.235 2.84317 140.255 2.84647L141.023 3.01794C141.043 3.02124 141.056 3.04432 141.053 3.06411L140.882 3.80936C140.879 3.82915 140.856 3.84234 140.836 3.83904L140.069 3.66757Z" fill="#5E5E5D"/>
<path d="M141.593 3.01819L142.361 3.18966C142.447 3.20944 142.504 3.29518 142.484 3.38422L142.314 4.12947C142.294 4.21521 142.207 4.27127 142.117 4.25148L141.35 4.08001C141.263 4.06022 141.206 3.97449 141.226 3.88545L141.397 3.1402C141.417 3.05446 141.507 2.9984 141.593 3.01819Z" fill="#585857"/>
<path d="M141.38 3.95776C141.36 3.95446 141.346 3.93138 141.35 3.91159L141.52 3.16634C141.523 3.14655 141.546 3.13336 141.566 3.13666L142.334 3.30813C142.354 3.31143 142.367 3.33451 142.364 3.3543L142.193 4.09955C142.19 4.11934 142.167 4.13253 142.147 4.12923L141.38 3.95776Z" fill="#5E5E5D"/>
<path d="M142.904 3.30838L143.671 3.47985C143.758 3.49964 143.815 3.58538 143.795 3.67441L143.624 4.41967C143.604 4.5054 143.518 4.56146 143.428 4.54168L142.66 4.3702C142.574 4.35042 142.517 4.26468 142.537 4.17564L142.707 3.43039C142.727 3.34465 142.817 3.28859 142.904 3.30838Z" fill="#585857"/>
<path d="M142.691 4.25126C142.671 4.24796 142.657 4.22488 142.661 4.20509L142.831 3.45984C142.834 3.44005 142.857 3.42686 142.877 3.43016L143.645 3.60164C143.665 3.60493 143.678 3.62802 143.675 3.6478L143.505 4.39306C143.501 4.41284 143.478 4.42603 143.458 4.42273L142.691 4.25126Z" fill="#5E5E5D"/>
<path d="M144.215 3.60182L144.982 3.77329C145.068 3.79308 145.125 3.87881 145.105 3.96785L144.935 4.7131C144.915 4.79884 144.828 4.8549 144.738 4.83511L143.971 4.66364C143.884 4.64385 143.828 4.55812 143.848 4.46908L144.018 3.72383C144.041 3.63479 144.128 3.58203 144.215 3.60182Z" fill="#585857"/>
<path d="M144.001 4.54144C143.981 4.53814 143.968 4.51506 143.971 4.49527L144.141 3.75002C144.145 3.73023 144.168 3.71704 144.188 3.72034L144.955 3.89181C144.975 3.89511 144.989 3.91819 144.985 3.93798L144.815 4.68323C144.812 4.70302 144.788 4.71621 144.768 4.71291L144.001 4.54144Z" fill="#5E5E5D"/>
<path d="M145.526 3.89206L146.293 4.06353C146.379 4.08332 146.436 4.16905 146.416 4.25809L146.246 5.00334C146.226 5.08908 146.139 5.14514 146.049 5.12535L145.282 4.95388C145.195 4.93409 145.139 4.84836 145.159 4.75932L145.329 4.01407C145.352 3.92833 145.439 3.87227 145.526 3.89206Z" fill="#585857"/>
<path d="M145.312 4.83184C145.292 4.82855 145.279 4.80546 145.282 4.78568L145.452 4.04042C145.455 4.02064 145.479 4.00745 145.499 4.01074L146.266 4.18222C146.286 4.18552 146.299 4.2086 146.296 4.22838L146.126 4.97364C146.122 4.99342 146.099 5.00661 146.079 5.00332L145.312 4.83184Z" fill="#5E5E5D"/>
<path d="M146.837 4.18528L147.604 4.35676C147.691 4.37654 147.747 4.46228 147.727 4.55131L147.557 5.29657C147.537 5.38231 147.45 5.43836 147.36 5.41858L146.593 5.2471C146.506 5.22732 146.45 5.14158 146.47 5.05255L146.64 4.30729C146.663 4.21826 146.75 4.1655 146.837 4.18528Z" fill="#585857"/>
<path d="M146.623 5.12512C146.603 5.12182 146.59 5.09874 146.593 5.07895L146.763 4.3337C146.766 4.31391 146.79 4.30072 146.81 4.30402L147.577 4.47549C147.597 4.47879 147.61 4.50187 147.607 4.52166L147.437 5.26691C147.433 5.2867 147.41 5.29989 147.39 5.29659L146.623 5.12512Z" fill="#5E5E5D"/>
<path d="M148.151 4.47574L148.918 4.64721C149.005 4.667 149.061 4.75273 149.041 4.84177L148.871 5.58702C148.851 5.67276 148.765 5.72882 148.674 5.70903L147.907 5.53756C147.821 5.51777 147.764 5.43204 147.784 5.343L147.954 4.59775C147.974 4.51201 148.061 4.45595 148.151 4.47574Z" fill="#585857"/>
<path d="M147.934 5.41552C147.914 5.41222 147.901 5.38914 147.904 5.36935L148.074 4.6241C148.077 4.60432 148.101 4.59113 148.121 4.59442L148.888 4.7659C148.908 4.7692 148.921 4.79228 148.918 4.81206L148.748 5.55732C148.745 5.5771 148.721 5.59029 148.701 5.587L147.934 5.41552Z" fill="#5E5E5D"/>
<path d="M149.461 4.76571L150.229 4.93719C150.315 4.95697 150.372 5.04271 150.352 5.13175L150.182 5.877C150.162 5.96274 150.075 6.0188 149.985 5.99901L149.218 5.82754C149.131 5.80775 149.074 5.72201 149.095 5.63298L149.265 4.88772C149.285 4.80199 149.371 4.74593 149.461 4.76571Z" fill="#585857"/>
<path d="M149.248 5.7088C149.228 5.7055 149.215 5.68241 149.218 5.66263L149.388 4.91738C149.392 4.89759 149.415 4.8844 149.435 4.8877L150.202 5.05917C150.222 5.06247 150.235 5.08555 150.232 5.10534L150.062 5.85059C150.059 5.87038 150.035 5.88357 150.015 5.88027L149.248 5.7088Z" fill="#5E5E5D"/>
<path d="M150.772 5.05937L151.54 5.23084C151.626 5.25063 151.683 5.33636 151.663 5.4254L151.493 6.17065C151.473 6.25639 151.386 6.31245 151.296 6.29266L150.529 6.12119C150.442 6.1014 150.386 6.01567 150.406 5.92663L150.576 5.18138C150.596 5.09234 150.682 5.03958 150.772 5.05937Z" fill="#585857"/>
<path d="M150.559 5.99922C150.539 5.99592 150.525 5.97283 150.529 5.95305L150.699 5.2078C150.702 5.18801 150.726 5.17482 150.746 5.17812L151.513 5.34959C151.533 5.35289 151.546 5.37597 151.543 5.39576L151.373 6.14101C151.369 6.1608 151.346 6.17399 151.326 6.17069L150.559 5.99922Z" fill="#5E5E5D"/>
<path d="M152.083 5.34938L152.85 5.52085C152.937 5.54064 152.994 5.62638 152.974 5.71541L152.804 6.46066C152.784 6.5464 152.697 6.60246 152.607 6.58267L151.843 6.4112C151.756 6.39141 151.7 6.30568 151.72 6.21664L151.89 5.47139C151.907 5.38565 151.993 5.32959 152.083 5.34938Z" fill="#585857"/>
<path d="M151.87 6.28939C151.85 6.28609 151.836 6.26301 151.84 6.24323L152.01 5.49797C152.013 5.47819 152.037 5.465 152.057 5.46829L152.824 5.63977C152.844 5.64306 152.857 5.66615 152.854 5.68593L152.68 6.43119C152.677 6.45097 152.654 6.46416 152.634 6.46087L151.87 6.28939Z" fill="#5E5E5D"/>
<path d="M153.394 5.64304L154.161 5.81452C154.248 5.8343 154.305 5.92004 154.285 6.00908L154.115 6.75433C154.095 6.84007 154.008 6.89613 153.918 6.87634L153.151 6.70487C153.064 6.68508 153.007 6.59935 153.027 6.51031L153.197 5.76506C153.217 5.67602 153.307 5.62326 153.394 5.64304Z" fill="#585857"/>
<path d="M153.181 6.58289C153.161 6.5796 153.148 6.55651 153.151 6.53673L153.321 5.79147C153.324 5.77169 153.348 5.7585 153.368 5.7618L154.135 5.93327C154.155 5.93657 154.168 5.95965 154.165 5.97944L153.995 6.72469C153.991 6.74448 153.968 6.75767 153.948 6.75437L153.181 6.58289Z" fill="#5E5E5D"/>
<path d="M154.705 5.93309L155.472 6.10456C155.559 6.12435 155.615 6.21008 155.595 6.29912L155.425 7.04437C155.405 7.13011 155.318 7.18617 155.228 7.16638L154.461 6.99491C154.375 6.97512 154.318 6.88939 154.338 6.80035L154.511 6.0551C154.528 5.96936 154.618 5.9133 154.705 5.93309Z" fill="#585857"/>
<path d="M154.491 6.87307C154.471 6.86977 154.458 6.84669 154.461 6.82691L154.632 6.08165C154.635 6.06187 154.658 6.04868 154.678 6.05197L155.445 6.22345C155.465 6.22675 155.479 6.24983 155.475 6.26961L155.305 7.01487C155.302 7.03465 155.279 7.04784 155.259 7.04455L154.491 6.87307Z" fill="#5E5E5D"/>
<path d="M138.694 3.64134L139.461 3.81281C139.548 3.8326 139.605 3.91834 139.585 4.00737L139.415 4.75263C139.395 4.83836 139.308 4.89442 139.218 4.87464L138.451 4.70316C138.364 4.68338 138.307 4.59764 138.327 4.5086L138.501 3.76335C138.521 3.67761 138.607 3.62155 138.694 3.64134Z" fill="#585857"/>
<path d="M138.481 4.58112C138.461 4.57783 138.448 4.55474 138.451 4.53496L138.621 3.7897C138.624 3.76992 138.648 3.75673 138.668 3.76003L139.435 3.9315C139.455 3.9348 139.468 3.95788 139.465 3.97767L139.295 4.72292C139.291 4.74271 139.268 4.7559 139.248 4.7526L138.481 4.58112Z" fill="#5E5E5D"/>
<path d="M140.009 3.93478L140.776 4.10625C140.863 4.12604 140.919 4.21178 140.899 4.30081L140.729 5.04606C140.709 5.1318 140.623 5.18786 140.533 5.16807L139.765 4.9966C139.679 4.97682 139.622 4.89108 139.642 4.80204L139.812 4.05679C139.832 3.96775 139.919 3.91499 140.009 3.93478Z" fill="#585857"/>
<path d="M139.792 4.87463C139.772 4.87133 139.759 4.84825 139.762 4.82846L139.932 4.08321C139.935 4.06342 139.959 4.05023 139.979 4.05353L140.746 4.225C140.766 4.2283 140.779 4.25138 140.776 4.27117L140.606 5.01642C140.603 5.03621 140.579 5.0494 140.559 5.0461L139.792 4.87463Z" fill="#5E5E5D"/>
<path d="M141.319 4.22502L142.087 4.39649C142.173 4.41628 142.23 4.50202 142.21 4.59105L142.04 5.33631C142.02 5.42204 141.933 5.4781 141.843 5.45832L141.076 5.28684C140.989 5.26706 140.933 5.18132 140.953 5.09228L141.123 4.34703C141.143 4.26129 141.229 4.20523 141.319 4.22502Z" fill="#585857"/>
<path d="M141.106 5.16481C141.086 5.16151 141.073 5.13842 141.076 5.11864L141.246 4.37338C141.25 4.3536 141.273 4.34041 141.293 4.34371L142.06 4.51518C142.08 4.51848 142.093 4.54156 142.09 4.56135L141.92 5.3066C141.917 5.32639 141.893 5.33958 141.873 5.33628L141.106 5.16481Z" fill="#5E5E5D"/>
<path d="M142.63 4.51521L143.397 4.68669C143.484 4.70647 143.541 4.79221 143.521 4.88124L143.351 5.6265C143.33 5.71224 143.244 5.76829 143.154 5.74851L142.387 5.57703C142.3 5.55725 142.243 5.47151 142.263 5.38248L142.433 4.63722C142.453 4.55148 142.54 4.49543 142.63 4.51521Z" fill="#585857"/>
<path d="M142.417 5.455C142.397 5.4517 142.383 5.42862 142.387 5.40883L142.557 4.66358C142.56 4.64379 142.584 4.6306 142.604 4.6339L143.371 4.80537C143.391 4.80867 143.404 4.83175 143.401 4.85154L143.231 5.59679C143.227 5.61658 143.204 5.62977 143.184 5.62647L142.417 5.455Z" fill="#5E5E5D"/>
<path d="M143.942 4.80865L144.709 4.98012C144.795 4.99991 144.852 5.08564 144.832 5.17468L144.662 5.91993C144.642 6.00567 144.555 6.06173 144.465 6.04194L143.698 5.87047C143.611 5.85068 143.555 5.76495 143.575 5.67591L143.745 4.93066C143.765 4.84162 143.855 4.78886 143.942 4.80865Z" fill="#585857"/>
<path d="M143.728 5.7485C143.708 5.7452 143.694 5.72212 143.698 5.70233L143.868 4.95708C143.871 4.93729 143.895 4.9241 143.915 4.9274L144.682 5.09887C144.702 5.10217 144.715 5.12526 144.712 5.14504L144.542 5.8903C144.538 5.91008 144.515 5.92327 144.495 5.91997L143.728 5.7485Z" fill="#5E5E5D"/>
<path d="M145.252 5.09868L146.019 5.27015C146.106 5.28994 146.163 5.37567 146.143 5.46471L145.973 6.20996C145.953 6.2957 145.866 6.35176 145.776 6.33197L145.009 6.1605C144.922 6.14071 144.865 6.05498 144.885 5.96594L145.055 5.22069C145.075 5.13495 145.165 5.07889 145.252 5.09868Z" fill="#585857"/>
<path d="M145.039 6.03868C145.019 6.03538 145.006 6.01229 145.009 5.99251L145.179 5.24725C145.182 5.22747 145.206 5.21428 145.226 5.21758L145.993 5.38905C146.013 5.39235 146.026 5.41543 146.023 5.43522L145.853 6.18047C145.849 6.20026 145.826 6.21345 145.806 6.21015L145.039 6.03868Z" fill="#5E5E5D"/>
<path d="M146.563 5.39233L147.33 5.5638C147.417 5.58359 147.473 5.66932 147.453 5.75836L147.283 6.50361C147.263 6.58935 147.176 6.64541 147.086 6.62563L146.319 6.45415C146.233 6.43437 146.176 6.34863 146.196 6.25959L146.366 5.51434C146.389 5.4253 146.476 5.37254 146.563 5.39233Z" fill="#585857"/>
<path d="M146.349 6.33218C146.329 6.32888 146.316 6.3058 146.319 6.28601L146.49 5.54076C146.493 5.52097 146.516 5.50778 146.536 5.51108L147.303 5.68255C147.323 5.68585 147.337 5.70893 147.333 5.72872L147.163 6.47397C147.16 6.49376 147.137 6.50695 147.117 6.50365L146.349 6.33218Z" fill="#5E5E5D"/>
<path d="M147.874 5.68236L148.641 5.85383C148.728 5.87362 148.784 5.95935 148.764 6.04839L148.594 6.79364C148.574 6.87938 148.488 6.93544 148.397 6.91565L147.63 6.74418C147.544 6.72439 147.487 6.63866 147.507 6.54962L147.677 5.80437C147.7 5.71863 147.787 5.66257 147.874 5.68236Z" fill="#585857"/>
<path d="M147.66 6.62236C147.64 6.61906 147.627 6.59597 147.63 6.57619L147.8 5.83093C147.804 5.81115 147.827 5.79796 147.847 5.80126L148.614 5.97273C148.634 5.97603 148.647 5.99911 148.644 6.0189L148.474 6.76415C148.471 6.78394 148.447 6.79713 148.427 6.79383L147.66 6.62236Z" fill="#5E5E5D"/>
<path d="M149.185 5.97276L149.952 6.14424C150.039 6.16402 150.095 6.24976 150.075 6.33879L149.905 7.08405C149.885 7.16978 149.799 7.22584 149.709 7.20606L148.941 7.03458C148.855 7.0148 148.798 6.92906 148.818 6.84003L148.988 6.09477C149.011 6.00903 149.098 5.95298 149.185 5.97276Z" fill="#585857"/>
<path d="M148.971 6.91255C148.951 6.90925 148.938 6.88616 148.941 6.86638L149.111 6.12113C149.115 6.10134 149.138 6.08815 149.158 6.09145L149.925 6.26292C149.945 6.26622 149.958 6.2893 149.955 6.30909L149.785 7.05434C149.782 7.07413 149.758 7.08732 149.738 7.08402L148.971 6.91255Z" fill="#5E5E5D"/>
<path d="M150.495 6.2662L151.263 6.43767C151.349 6.45746 151.406 6.5432 151.386 6.63223L151.216 7.37748C151.196 7.46322 151.109 7.51928 151.019 7.4995L150.252 7.32802C150.165 7.30824 150.109 7.2225 150.129 7.13346L150.299 6.38821C150.322 6.29917 150.409 6.24641 150.495 6.2662Z" fill="#585857"/>
<path d="M150.282 7.20603C150.262 7.20274 150.249 7.17965 150.252 7.15987L150.422 6.41461C150.426 6.39483 150.449 6.38164 150.469 6.38493L151.236 6.55641C151.256 6.55971 151.269 6.58279 151.266 6.60258L151.096 7.34783C151.093 7.36761 151.069 7.38081 151.049 7.37751L150.282 7.20603Z" fill="#5E5E5D"/>
<path d="M151.81 6.55644L152.577 6.72791C152.664 6.7477 152.72 6.83344 152.7 6.92247L152.53 7.66773C152.51 7.75346 152.423 7.80952 152.333 7.78974L151.566 7.61826C151.479 7.59848 151.423 7.51274 151.443 7.4237L151.613 6.67845C151.633 6.59271 151.72 6.53665 151.81 6.55644Z" fill="#585857"/>
<path d="M151.593 7.49622C151.573 7.49293 151.559 7.46984 151.563 7.45006L151.733 6.7048C151.736 6.68502 151.76 6.67183 151.78 6.67513L152.547 6.8466C152.567 6.8499 152.58 6.87298 152.577 6.89277L152.407 7.63802C152.403 7.65781 152.38 7.671 152.36 7.6677L151.593 7.49622Z" fill="#5E5E5D"/>
<path d="M153.121 6.84988L153.888 7.02135C153.975 7.04114 154.031 7.12688 154.011 7.21591L153.841 7.96116C153.821 8.0469 153.734 8.10296 153.644 8.08317L152.877 7.9117C152.79 7.89192 152.734 7.80618 152.754 7.71714L152.924 6.97189C152.944 6.88285 153.031 6.83009 153.121 6.84988Z" fill="#585857"/>
<path d="M152.907 7.78973C152.887 7.78643 152.874 7.76335 152.877 7.74356L153.047 6.99831C153.051 6.97852 153.074 6.96533 153.094 6.96863L153.861 7.1401C153.881 7.1434 153.895 7.16648 153.891 7.18627L153.721 7.93152C153.718 7.95131 153.695 7.9645 153.675 7.9612L152.907 7.78973Z" fill="#5E5E5D"/>
<path d="M154.432 7.14012L155.199 7.31159C155.286 7.33138 155.342 7.41712 155.322 7.50615L155.152 8.25141C155.132 8.33714 155.045 8.3932 154.955 8.37342L154.188 8.20194C154.102 8.18216 154.045 8.09642 154.065 8.00738L154.235 7.26213C154.255 7.17639 154.342 7.12033 154.432 7.14012Z" fill="#585857"/>
<path d="M154.218 8.07991C154.198 8.07661 154.185 8.05352 154.188 8.03374L154.358 7.28848C154.361 7.2687 154.385 7.25551 154.405 7.25881L155.172 7.43028C155.192 7.43358 155.205 7.45666 155.202 7.47645L155.032 8.2217C155.029 8.24149 155.005 8.25468 154.985 8.25138L154.218 8.07991Z" fill="#5E5E5D"/>
<path d="M138.421 4.84817L139.188 5.01965C139.275 5.03943 139.332 5.12517 139.312 5.2142L139.142 5.95946C139.122 6.0452 139.035 6.10125 138.945 6.08147L138.178 5.90999C138.091 5.89021 138.034 5.80447 138.054 5.71544L138.224 4.97018C138.248 4.88445 138.335 4.82839 138.421 4.84817Z" fill="#585857"/>
<path d="M138.208 5.78796C138.187 5.78466 138.174 5.76158 138.177 5.74179L138.348 4.99654C138.351 4.97675 138.374 4.96356 138.394 4.96686L139.161 5.13833C139.181 5.14163 139.195 5.16471 139.191 5.1845L139.021 5.92975C139.018 5.94954 138.995 5.96273 138.975 5.95943L138.208 5.78796Z" fill="#5E5E5D"/>
<path d="M139.732 5.13828L140.499 5.30975C140.586 5.32954 140.642 5.41527 140.622 5.50431L140.452 6.24956C140.432 6.3353 140.346 6.39136 140.255 6.37157L139.488 6.2001C139.402 6.18031 139.345 6.09458 139.365 6.00554L139.535 5.26029C139.558 5.17455 139.645 5.12179 139.732 5.13828Z" fill="#585857"/>
<path d="M139.519 6.08167C139.499 6.07838 139.485 6.05529 139.489 6.03551L139.659 5.29025C139.662 5.27047 139.685 5.25728 139.705 5.26058L140.472 5.43205C140.493 5.43535 140.506 5.45843 140.503 5.47822L140.332 6.22347C140.329 6.24326 140.306 6.25645 140.286 6.25315L139.519 6.08167Z" fill="#5E5E5D"/>
<path d="M141.042 5.43185L141.81 5.60333C141.896 5.62311 141.953 5.70885 141.933 5.79788L141.763 6.54314C141.743 6.62888 141.656 6.68493 141.566 6.66515L140.799 6.49367C140.712 6.47389 140.655 6.38815 140.676 6.29912L140.846 5.55386C140.869 5.46812 140.956 5.41207 141.042 5.43185Z" fill="#585857"/>
<path d="M140.829 6.37164C140.809 6.36834 140.796 6.34526 140.799 6.32547L140.969 5.58022C140.973 5.56043 140.996 5.54724 141.016 5.55054L141.783 5.72201C141.803 5.72531 141.816 5.74839 141.813 5.76818L141.643 6.51343C141.64 6.53322 141.616 6.54641 141.596 6.54311L140.829 6.37164Z" fill="#5E5E5D"/>
<path d="M142.357 5.72206L143.124 5.89353C143.211 5.91332 143.268 5.99906 143.248 6.08809L143.078 6.83335C143.058 6.91908 142.971 6.97514 142.881 6.95536L142.114 6.78388C142.027 6.7641 141.97 6.67836 141.99 6.58932L142.16 5.84407C142.18 5.75833 142.267 5.70227 142.357 5.72206Z" fill="#585857"/>
<path d="M142.14 6.66184C142.12 6.65855 142.107 6.63546 142.11 6.61568L142.28 5.87042C142.284 5.85064 142.307 5.83745 142.327 5.84075L143.094 6.01222C143.114 6.01552 143.128 6.0386 143.124 6.05839L142.954 6.80364C142.951 6.82343 142.927 6.83662 142.907 6.83332L142.14 6.66184Z" fill="#5E5E5D"/>
<path d="M143.668 6.01569L144.435 6.18717C144.522 6.20695 144.578 6.29269 144.558 6.38173L144.388 7.12698C144.368 7.21272 144.281 7.26878 144.191 7.24899L143.424 7.07752C143.337 7.05773 143.281 6.97199 143.301 6.88296L143.471 6.13771C143.491 6.04867 143.578 5.99591 143.668 6.01569Z" fill="#585857"/>
<path d="M143.454 6.95532C143.434 6.95202 143.421 6.92894 143.424 6.90915L143.594 6.1639C143.598 6.14411 143.621 6.13092 143.641 6.13422L144.408 6.30569C144.428 6.30899 144.442 6.33207 144.438 6.35186L144.268 7.09711C144.265 7.1169 144.242 7.13009 144.222 7.12679L143.454 6.95532Z" fill="#5E5E5D"/>
<path d="M144.979 6.30574L145.746 6.47721C145.833 6.497 145.889 6.58274 145.869 6.67177L145.699 7.41703C145.679 7.50276 145.592 7.55882 145.502 7.53904L144.735 7.36756C144.648 7.34778 144.592 7.26204 144.612 7.173L144.782 6.42775C144.802 6.34201 144.889 6.28595 144.979 6.30574Z" fill="#585857"/>
<path d="M144.765 7.24551C144.745 7.24221 144.732 7.21913 144.735 7.19934L144.905 6.45409C144.908 6.4343 144.932 6.42111 144.952 6.42441L145.719 6.59588C145.739 6.59918 145.752 6.62226 145.749 6.64205L145.579 7.38731C145.575 7.40709 145.552 7.42028 145.532 7.41698L144.765 7.24551Z" fill="#5E5E5D"/>
<path d="M146.29 6.59583L147.057 6.7673C147.144 6.78709 147.2 6.87283 147.18 6.96186L147.01 7.70711C146.99 7.79285 146.903 7.84891 146.813 7.82913L146.046 7.65765C145.96 7.63787 145.903 7.55213 145.923 7.46309L146.093 6.71784C146.113 6.6321 146.2 6.57934 146.29 6.59583Z" fill="#585857"/>
<path d="M146.076 7.53901C146.056 7.53571 146.043 7.51263 146.046 7.49285L146.216 6.74759C146.219 6.72781 146.243 6.71461 146.263 6.71791L147.03 6.88939C147.05 6.89268 147.063 6.91577 147.06 6.93555L146.89 7.68081C146.887 7.70059 146.863 7.71378 146.843 7.71049L146.076 7.53901Z" fill="#5E5E5D"/>
<path d="M147.6 6.88934L148.368 7.06081C148.454 7.0806 148.511 7.16633 148.491 7.25537L148.321 8.00062C148.301 8.08636 148.214 8.14242 148.124 8.12263L147.357 7.95116C147.27 7.93137 147.213 7.84564 147.233 7.7566L147.404 7.01135C147.424 6.92231 147.514 6.86955 147.6 6.88934Z" fill="#585857"/>
<path d="M147.387 7.82919C147.367 7.82589 147.354 7.80281 147.357 7.78302L147.527 7.03777C147.53 7.01798 147.554 7.00479 147.574 7.00809L148.341 7.17956C148.361 7.18286 148.374 7.20594 148.371 7.22573L148.201 7.97098C148.198 7.99077 148.174 8.00396 148.154 8.00066L147.387 7.82919Z" fill="#5E5E5D"/>
<path d="M148.911 7.17961L149.678 7.35108C149.765 7.37087 149.822 7.45661 149.802 7.54564L149.631 8.29089C149.611 8.37663 149.525 8.43269 149.435 8.41291L148.667 8.24143C148.581 8.22165 148.524 8.13591 148.544 8.04687L148.714 7.30162C148.734 7.21588 148.824 7.15982 148.911 7.17961Z" fill="#585857"/>
<path d="M148.698 8.11939C148.678 8.1161 148.664 8.09301 148.668 8.07323L148.838 7.32797C148.841 7.30819 148.864 7.295 148.884 7.2983L149.652 7.46977C149.672 7.47307 149.685 7.49615 149.682 7.51594L149.508 8.26119C149.505 8.28098 149.482 8.29417 149.462 8.29087L148.698 8.11939Z" fill="#5E5E5D"/>
<path d="M150.222 7.47303L150.989 7.64451C151.076 7.66429 151.133 7.75003 151.113 7.83906L150.942 8.58432C150.922 8.67005 150.836 8.72611 150.746 8.70633L149.979 8.53485C149.892 8.51507 149.835 8.42933 149.855 8.3403L150.025 7.59504C150.049 7.50601 150.135 7.45325 150.222 7.47303Z" fill="#585857"/>
<path d="M150.008 8.41287C149.988 8.40957 149.975 8.38978 149.978 8.3667L150.148 7.62145C150.152 7.60166 150.175 7.58847 150.195 7.59177L150.962 7.76324C150.982 7.76654 150.996 7.78962 150.992 7.80941L150.822 8.55466C150.819 8.57445 150.795 8.58764 150.775 8.58434L150.008 8.41287Z" fill="#5E5E5D"/>
<path d="M151.533 7.76329L152.3 7.93476C152.387 7.95455 152.444 8.04029 152.424 8.12932L152.254 8.87457C152.234 8.96031 152.147 9.01637 152.057 8.99658L151.29 8.82511C151.203 8.80532 151.146 8.71959 151.166 8.63055L151.336 7.8853C151.36 7.79956 151.446 7.7435 151.533 7.76329Z" fill="#585857"/>
<path d="M151.319 8.70306C151.299 8.69976 151.286 8.67668 151.289 8.65689L151.459 7.91164C151.463 7.89185 151.486 7.87866 151.506 7.88196L152.273 8.05343C152.293 8.05673 152.307 8.07981 152.303 8.0996L152.133 8.84485C152.13 8.86464 152.107 8.87783 152.086 8.87453L151.319 8.70306Z" fill="#5E5E5D"/>
<path d="M152.844 8.05346L153.611 8.22494C153.698 8.24472 153.754 8.33046 153.734 8.4195L153.564 9.16475C153.544 9.25049 153.457 9.30655 153.367 9.28676L152.6 9.11529C152.513 9.0955 152.457 9.00976 152.477 8.92073L152.647 8.17548C152.67 8.08974 152.757 8.03368 152.844 8.05346Z" fill="#585857"/>
<path d="M152.63 8.99656C152.61 8.99326 152.597 8.97018 152.6 8.95039L152.77 8.20514C152.774 8.18536 152.797 8.17216 152.817 8.17546L153.584 8.34694C153.604 8.35023 153.618 8.37332 153.614 8.3931L153.444 9.13506C153.441 9.15485 153.418 9.16804 153.398 9.16474L152.63 8.99656Z" fill="#5E5E5D"/>
<path d="M154.158 8.34689L154.925 8.51836C155.012 8.53815 155.068 8.62388 155.048 8.71292L154.878 9.45817C154.858 9.54391 154.772 9.59997 154.682 9.58018L153.914 9.40871C153.828 9.38892 153.771 9.30319 153.791 9.21415L153.961 8.4689C153.981 8.37986 154.068 8.3271 154.158 8.34689Z" fill="#585857"/>
<path d="M153.941 9.28674C153.921 9.28344 153.908 9.26036 153.911 9.24057L154.081 8.49532C154.084 8.47553 154.108 8.46234 154.128 8.46564L154.895 8.63711C154.915 8.64041 154.928 8.6635 154.925 8.68328L154.755 9.42853C154.752 9.44832 154.728 9.46151 154.708 9.45821L153.941 9.28674Z" fill="#5E5E5D"/>
<path d="M138.147 6.05523L138.914 6.22671C139.001 6.24649 139.058 6.33223 139.038 6.42127L138.868 7.16652C138.848 7.25226 138.761 7.30832 138.671 7.28853L137.904 7.11706C137.817 7.09727 137.76 7.01153 137.78 6.9225L137.951 6.17724C137.971 6.09151 138.061 6.03545 138.147 6.05523Z" fill="#585857"/>
<path d="M137.934 6.99502C137.914 6.99172 137.901 6.96864 137.904 6.94885L138.074 6.2036C138.077 6.18381 138.101 6.17062 138.121 6.17392L138.888 6.3454C138.908 6.34869 138.921 6.37178 138.918 6.39156L138.748 7.13682C138.745 7.1566 138.721 7.16979 138.701 7.16649L137.934 6.99502Z" fill="#5E5E5D"/>
<path d="M139.458 6.34541L140.226 6.51688C140.312 6.53667 140.369 6.62241 140.349 6.71144L140.179 7.4567C140.159 7.54243 140.072 7.59849 139.982 7.57871L139.215 7.40723C139.128 7.38745 139.071 7.30171 139.091 7.21268L139.262 6.46742C139.282 6.38168 139.372 6.32563 139.458 6.34541Z" fill="#585857"/>
<path d="M139.245 7.2852C139.225 7.2819 139.212 7.25882 139.215 7.23903L139.385 6.49378C139.389 6.47399 139.412 6.4608 139.432 6.4641L140.199 6.63557C140.219 6.63887 140.232 6.66195 140.229 6.68174L140.059 7.42699C140.056 7.44678 140.032 7.45997 140.012 7.45667L139.245 7.2852Z" fill="#5E5E5D"/>
<path d="M140.769 6.63885L141.537 6.81032C141.623 6.83011 141.68 6.91585 141.66 7.00488L141.49 7.75013C141.47 7.83587 141.383 7.89193 141.293 7.87214L140.526 7.70067C140.439 7.68088 140.382 7.59515 140.402 7.50611L140.576 6.76086C140.596 6.67182 140.683 6.61906 140.769 6.63885Z" fill="#585857"/>
<path d="M140.556 7.57847C140.536 7.57517 140.522 7.55209 140.526 7.5323L140.696 6.78705C140.699 6.76726 140.722 6.75407 140.742 6.75737L141.51 6.92884C141.53 6.93214 141.543 6.95523 141.54 6.97501L141.37 7.72027C141.366 7.74005 141.343 7.75324 141.323 7.74994L140.556 7.57847Z" fill="#5E5E5D"/>
<path d="M142.08 6.92909L142.847 7.10056C142.934 7.12035 142.991 7.20609 142.971 7.29512L142.8 8.04038C142.78 8.12611 142.694 8.18217 142.604 8.16239L141.837 7.99091C141.75 7.97113 141.693 7.88539 141.713 7.79636L141.883 7.0511C141.907 6.96536 141.993 6.9093 142.08 6.92909Z" fill="#585857"/>
<path d="M141.867 7.86888C141.847 7.86558 141.833 7.8425 141.837 7.82271L142.007 7.07746C142.01 7.05767 142.034 7.04448 142.054 7.04778L142.821 7.21925C142.841 7.22255 142.854 7.24563 142.851 7.26542L142.681 8.01067C142.677 8.03046 142.654 8.04365 142.634 8.04035L141.867 7.86888Z" fill="#5E5E5D"/>
<path d="M148.09 8.26458L143.384 7.21924C143.297 7.19946 143.214 7.25222 143.194 7.33795L143.01 8.13927C142.997 8.19862 143.034 8.25798 143.094 8.27117L147.844 9.3264C147.93 9.34618 148.02 9.29012 148.04 9.20439L148.21 8.45913C148.234 8.3734 148.18 8.28436 148.09 8.26458Z" fill="#585857"/>
<path d="M143.141 8.15239L143.321 7.36427C143.324 7.34778 143.344 7.33459 143.361 7.34118L148.067 8.38652C148.087 8.38981 148.1 8.4129 148.097 8.43268L147.927 9.17794C147.924 9.19772 147.9 9.21091 147.88 9.20761L143.141 8.15239Z" fill="#5E5E5D"/>
<path d="M148.638 8.38664L149.405 8.55811C149.492 8.5779 149.549 8.66364 149.529 8.75267L149.358 9.49793C149.338 9.58366 149.252 9.63972 149.162 9.61994L148.394 9.44846C148.308 9.42868 148.251 9.34294 148.271 9.25391L148.441 8.50865C148.461 8.42291 148.548 8.36685 148.638 8.38664Z" fill="#585857"/>
<path d="M148.424 9.32642C148.404 9.32313 148.391 9.30004 148.394 9.28026L148.564 8.53501C148.568 8.51522 148.591 8.50203 148.611 8.50533L149.378 8.6768C149.398 8.6801 149.412 8.70318 149.408 8.72297L149.238 9.46822C149.235 9.48801 149.211 9.5012 149.191 9.4979L148.424 9.32642Z" fill="#5E5E5D"/>
<path d="M149.949 8.68008L150.716 8.85155C150.802 8.87134 150.859 8.95708 150.839 9.04611L150.669 9.79136C150.649 9.8771 150.562 9.93316 150.472 9.91338L149.705 9.7419C149.618 9.72212 149.562 9.63638 149.582 9.54734L149.752 8.80209C149.772 8.71305 149.862 8.66029 149.949 8.68008Z" fill="#585857"/>
<path d="M149.735 9.61993C149.715 9.61663 149.702 9.59355 149.705 9.57376L149.875 8.82851C149.879 8.80872 149.902 8.79553 149.922 8.79883L150.689 8.9703C150.709 8.9736 150.723 8.99668 150.719 9.01647L150.549 9.76172C150.546 9.78151 150.522 9.7947 150.502 9.7914L149.735 9.61993Z" fill="#5E5E5D"/>
<path d="M151.259 8.97032L152.026 9.14179C152.113 9.16158 152.17 9.24732 152.15 9.33635L151.98 10.0816C151.96 10.1673 151.873 10.2234 151.783 10.2036L151.016 10.0321C150.929 10.0124 150.872 9.92662 150.892 9.83758L151.062 9.09233C151.082 9.00659 151.172 8.95053 151.259 8.97032Z" fill="#585857"/>
<path d="M151.046 9.9101C151.026 9.90681 151.013 9.88372 151.016 9.86394L151.186 9.11868C151.189 9.0989 151.213 9.08571 151.233 9.08901L152 9.26048C152.02 9.26378 152.033 9.28686 152.03 9.30665L151.86 10.0519C151.856 10.0717 151.836 10.0849 151.813 10.0816L151.046 9.9101Z" fill="#5E5E5D"/>
<path d="M152.57 9.2603L153.337 9.43177C153.424 9.45156 153.481 9.53729 153.461 9.62633L153.291 10.3716C153.271 10.4573 153.184 10.5134 153.094 10.4936L152.327 10.3221C152.24 10.3023 152.183 10.2166 152.203 10.1276L152.373 9.38231C152.397 9.29657 152.483 9.24051 152.57 9.2603Z" fill="#585857"/>
<path d="M152.356 10.2003C152.336 10.197 152.323 10.1739 152.326 10.1541L152.497 9.40888C152.5 9.38909 152.523 9.3759 152.543 9.3792L153.31 9.55067C153.33 9.55397 153.344 9.57705 153.34 9.59684L153.17 10.3421C153.167 10.3619 153.144 10.3751 153.124 10.3718L152.356 10.2003Z" fill="#5E5E5D"/>
<path d="M153.881 9.55395L154.648 9.72542C154.735 9.74521 154.792 9.83095 154.772 9.91998L154.602 10.6652C154.582 10.751 154.495 10.807 154.405 10.7872L153.638 10.6158C153.551 10.596 153.494 10.5102 153.514 10.4212L153.684 9.67596C153.708 9.58692 153.795 9.53416 153.881 9.55395Z" fill="#585857"/>
<path d="M153.668 10.4938C153.648 10.4905 153.635 10.4674 153.638 10.4476L153.808 9.70238C153.811 9.68259 153.835 9.6694 153.855 9.6727L154.622 9.84417C154.642 9.84747 154.655 9.87056 154.652 9.89034L154.482 10.6356C154.479 10.6554 154.455 10.6686 154.435 10.6653L153.668 10.4938Z" fill="#5E5E5D"/>
<path d="M147.854 10.3684L144.004 9.51428C143.831 9.47471 143.658 9.58353 143.621 9.755L143.157 11.7896C143.117 11.9611 143.227 12.1326 143.401 12.1688L147.25 13.0229C147.423 13.0625 147.597 12.9537 147.634 12.7822L148.097 10.7476C148.137 10.5761 148.027 10.4079 147.854 10.3684Z" fill="#EDEDED"/>
<path d="M147.884 10.2463L144.034 9.39221C143.794 9.33945 143.554 9.48784 143.501 9.72527L143.037 11.7599C142.984 11.9973 143.134 12.2347 143.374 12.2875L147.223 13.1416C147.463 13.1943 147.704 13.0459 147.757 12.8085L148.221 10.7739C148.274 10.5365 148.124 10.3023 147.884 10.2463ZM147.637 12.7821C147.597 12.9536 147.427 13.0624 147.253 13.0228L143.404 12.1688C143.231 12.1292 143.121 11.961 143.161 11.7896L143.624 9.75494C143.664 9.58347 143.834 9.47465 144.008 9.51422L147.857 10.3683C148.03 10.4079 148.14 10.576 148.1 10.7475L147.637 12.7821Z" fill="#9D9B9B"/>
<path d="M143.388 10.7871L143.161 11.7895C143.121 11.961 143.231 12.1325 143.404 12.1688L147.254 13.0228C147.427 13.0624 147.6 12.9536 147.637 12.7821L147.864 11.7797L143.388 10.7871Z" fill="#DFDFDE"/>
<path d="M145.609 11.2786L143.388 10.784L143.161 11.7864C143.121 11.9579 143.231 12.1294 143.404 12.1657L145.312 12.5911L145.609 11.2786Z" fill="#D9D9DA"/>
<path d="M157.09 4.52837L138.191 0.327245C138.081 0.300864 138.004 0.198638 138.014 0.0865201L139.992 -10.6043C140.019 -10.8977 140.299 -11.0989 140.589 -11.0329L159.838 -6.75267C160.129 -6.68672 160.295 -6.38664 160.192 -6.10964L157.353 4.38657C157.313 4.49209 157.203 4.55475 157.09 4.52837Z" fill="#E3E1E1"/>
<path d="M138.838 -0.698391L140.663 -9.72388C140.689 -10.0009 140.953 -10.1921 141.226 -10.1295L158.868 -6.20866C159.141 -6.1493 159.298 -5.86241 159.201 -5.6019L156.947 3.32466C156.867 3.5423 156.636 3.66431 156.406 3.61485L139.202 -0.210348C138.971 -0.259812 138.818 -0.470858 138.838 -0.698391Z" fill="#C7C7C6"/>
<path d="M138.965 -0.685216L140.789 -9.7173C140.809 -9.91846 140.999 -10.057 141.199 -10.0108L158.848 -6.08666C159.044 -6.04379 159.161 -5.83604 159.091 -5.64808L156.83 3.28508C156.773 3.44336 156.606 3.5324 156.439 3.49612L139.225 -0.332373C139.061 -0.368647 138.948 -0.520336 138.965 -0.685216Z" fill="#C6E6F2"/>
<path d="M154.351 3.92154L140.903 0.930626L140.909 0.70639L154.468 3.72038L154.351 3.92154Z" fill="#585857"/>
</g>
<path d="M30.3077 65.7087C29.4108 61.9603 25.6193 59.6485 21.8483 60.5389C18.0721 61.4292 15.7432 65.1928 16.6401 68.9361C17.272 71.5666 19.3308 73.4889 21.8075 74.0908C21.9502 74.4652 22.2152 76.7365 22.6891 77.4649C22.9031 77.7937 23.1732 77.8494 23.586 77.7634C23.9173 78.9319 25.3034 80.0043 26.4449 79.8981C27.245 79.8222 27.8259 79.2759 28.0858 78.5424C28.2896 77.9708 28.4527 77.3132 28.5546 76.6758C29.105 76.6606 29.37 76.605 29.3445 76.094C29.2987 75.2088 28.3304 72.7705 28.2947 72.3962C30.0529 70.7421 30.909 68.2229 30.3077 65.7087Z" fill="#FDFFFC"/>
<path d="M26.6538 65.4559C26.5468 65.0766 26.1697 64.8236 25.7722 64.9197C25.4002 65.0057 25.1199 65.4155 25.232 65.7949C25.2983 66.0276 25.4715 66.2147 25.6805 66.3007C25.5276 67.2821 25.3339 68.2483 25.2524 69.2398C25.176 70.1604 25.0995 71.0609 24.8957 71.9562C23.7898 70.3122 22.6891 68.6732 21.4712 67.1101C21.8075 66.7914 21.5527 66.0782 20.987 66.2097C20.3195 66.3665 20.5641 67.3984 21.2367 67.2416C21.2418 67.2416 21.2469 67.2366 21.252 67.2315C22.5158 69.0071 23.7542 70.8079 24.7836 72.7302C24.8957 72.9376 25.2014 72.8921 25.2728 72.6796C25.6091 71.6881 25.7059 70.6764 25.7773 69.6394C25.8588 68.5215 26.078 67.4237 26.1697 66.3108C26.5111 66.1996 26.7557 65.8151 26.6538 65.4559Z" fill="#AEB4FC"/>
<path d="M18.1685 59.3452C16.7467 58.6471 15.3198 57.944 13.898 57.2408C13.6024 57.0992 13.3323 57.519 13.6279 57.6759C15.014 58.4347 16.4052 59.1884 17.7914 59.9472C18.199 60.1698 18.5761 59.5475 18.1685 59.3452Z" fill="#808AFF"/>
<path d="M20.8441 53.983C20.7269 53.725 20.3906 53.9122 20.416 54.1449C20.5893 55.6018 21.1346 57.089 21.5626 58.4953C21.6697 58.8393 22.2047 58.7229 22.1181 58.3638C21.7665 56.917 21.4607 55.3438 20.8441 53.983Z" fill="#808AFF"/>
<path d="M27.4691 53.5582C27.1022 53.8769 26.878 54.3827 26.6487 54.8077C26.4092 55.2528 26.1951 55.7081 25.9913 56.1684C25.8282 56.5428 26.455 56.7401 26.613 56.3556C26.8016 55.8851 27.0054 55.4299 27.2398 54.9797C27.4386 54.5901 27.729 54.2108 27.8462 53.7909C27.9125 53.5633 27.6373 53.4064 27.4691 53.5582Z" fill="#808AFF"/>
<defs>
<clipPath id="clip0_1_2329">
<rect width="14" height="16.8066" fill="white" transform="translate(147.5 25.5337)"/>
</clipPath>
<clipPath id="clip1_1_2329">
<rect width="69" height="11.8635" fill="white" transform="translate(51.5 117.476)"/>
</clipPath>
<clipPath id="clip2_1_2329">
<rect width="32" height="25.7043" fill="white" transform="translate(132.5 59.1469)"/>
</clipPath>
<clipPath id="clip3_1_2329">
<rect width="35" height="34.6019" fill="white" transform="translate(34.5 -15)"/>
</clipPath>
</defs>
</svg>
