<svg width="82" height="79" viewBox="0 0 82 79" fill="none" xmlns="http://www.w3.org/2000/svg">
    <path d="M22.5867 10.46C22.4606 10.0783 22.8433 9.49482 22.6752 9.14215C22.5017 8.78214 21.8083 8.71887 21.5911 8.39158C21.372 8.05881 21.591 7.39238 21.3356 7.09601C21.0755 6.79506 20.3883 6.91557 20.0955 6.65287C19.799 6.38833 19.8406 5.68916 19.5122 5.46562C19.1839 5.24208 18.5548 5.53836 18.2018 5.35951C17.8488 5.18067 17.7102 4.49536 17.3362 4.36305C16.966 4.23258 16.4295 4.681 16.0419 4.59891C15.6579 4.51867 15.3445 3.89113 14.9495 3.8602C14.5582 3.83112 14.16 4.40446 13.7641 4.42564C13.3745 4.44776 12.9099 3.92196 12.5194 3.99619C12.1371 4.06771 11.9008 4.72766 11.5212 4.85313C11.1416 4.9786 10.5595 4.59218 10.2089 4.75982C9.85111 4.93291 9.79043 5.62927 9.46534 5.84638C9.13478 6.0653 8.47061 5.84309 8.17642 6.09873C7.87768 6.35892 7.99994 7.04965 7.7394 7.34292C7.47703 7.63983 6.78084 7.59575 6.5594 7.92483C6.33796 8.25392 6.63501 8.88688 6.45814 9.24083C6.28127 9.59479 5.59949 9.73178 5.46902 10.107C5.34037 10.4785 5.78858 11.0188 5.70815 11.4079C5.62954 11.7934 5.00585 12.1062 4.97638 12.5028C4.94873 12.8958 5.52083 13.2977 5.54324 13.6955C5.56656 14.0868 5.04467 14.5518 5.11986 14.9443C5.19507 15.3276 5.85012 15.5681 5.97629 15.9498C6.10246 16.3316 5.71971 16.915 5.88777 17.2677C6.06129 17.6277 6.75472 17.691 6.97195 18.0183C7.19099 18.3511 6.97199 19.0175 7.22747 19.3139C7.48749 19.6148 8.17472 19.4943 8.46754 19.757C8.764 20.0215 8.72244 20.7207 9.05079 20.9443C9.37914 21.1678 10.0083 20.8715 10.3612 21.0504C10.7142 21.2292 10.8528 21.9145 11.2268 22.0468C11.5971 22.1773 12.1335 21.7289 12.5211 21.811C12.9051 21.8912 13.2186 22.5187 13.6135 22.5497C14.0048 22.5787 14.403 22.0054 14.799 21.9842C15.1885 21.9621 15.6531 22.4879 16.0436 22.4137C16.425 22.3394 16.6622 21.6822 17.0418 21.5567C17.4214 21.4313 18.0036 21.8177 18.3541 21.6501C18.7119 21.477 18.7726 20.7806 19.0977 20.5635C19.4282 20.3446 20.0924 20.5668 20.3866 20.3111C20.6853 20.0509 20.5631 19.3602 20.8236 19.067C21.086 18.77 21.7822 18.8141 22.0036 18.485C22.2251 18.156 21.928 17.523 22.1049 17.169C22.2817 16.8151 22.9635 16.6781 23.094 16.3029C23.2227 15.9314 22.7744 15.391 22.8549 15.0019C22.9335 14.6165 23.5572 14.3037 23.5866 13.9071C23.6143 13.5141 23.0422 13.1122 23.0198 12.7144C22.9965 12.323 23.5184 11.8581 23.4432 11.4656C23.3698 11.0786 22.7129 10.8418 22.5867 10.46Z" fill="#4A5161"/>
    <path d="M16.1383 22.5371C16.1164 22.5443 16.0937 22.5488 16.0709 22.5533C15.8142 22.6016 15.5622 22.4624 15.3203 22.3261C15.1383 22.2248 14.9528 22.1216 14.8099 22.1292C14.6615 22.1387 14.4849 22.2641 14.3136 22.3877C14.0914 22.5495 13.8583 22.7149 13.6035 22.6955C13.3451 22.6743 13.1368 22.475 12.9395 22.2813C12.7913 22.1353 12.6358 21.9857 12.492 21.954C12.3482 21.9223 12.1461 21.9982 11.9495 22.0723C11.6909 22.17 11.4242 22.2703 11.1804 22.1834C10.9365 22.0964 10.7884 21.8499 10.6466 21.6134C10.5385 21.4328 10.4285 21.2468 10.2975 21.1804C10.1665 21.114 9.95265 21.136 9.74422 21.1561C9.46843 21.1833 9.18355 21.2104 8.96889 21.0651C8.75424 20.9197 8.6753 20.6442 8.59908 20.377C8.54102 20.1738 8.48113 19.9651 8.37019 19.8677C8.26197 19.7694 8.04813 19.7365 7.84247 19.7009C7.56949 19.6541 7.28467 19.6081 7.11647 19.4108C6.94918 19.2163 6.94215 18.9292 6.93875 18.6531C6.9353 18.441 6.93003 18.2234 6.84914 18.0978C6.77007 17.9777 6.57357 17.8873 6.38798 17.8024C6.13417 17.6852 5.87125 17.568 5.75861 17.328C5.64869 17.0963 5.71537 16.8214 5.78204 16.5556C5.83227 16.3502 5.88615 16.1374 5.83895 15.9946C5.79175 15.8518 5.62168 15.713 5.45889 15.5779C5.24699 15.4042 5.026 15.2214 4.9798 14.9716C4.93088 14.7136 5.06853 14.461 5.20344 14.2184C5.30371 14.0359 5.4058 13.8499 5.39773 13.7063C5.38785 13.5573 5.26242 13.3794 5.1397 13.2097C4.9779 12.986 4.81247 12.7513 4.83089 12.4954C4.85114 12.2358 5.04881 12.0273 5.24102 11.8297C5.38585 11.6814 5.53434 11.5257 5.56541 11.3813C5.59647 11.237 5.5202 11.0338 5.44575 10.836C5.34769 10.5759 5.2469 10.3077 5.33266 10.063C5.41843 9.81838 5.66337 9.6704 5.8983 9.52878C6.07768 9.42075 6.26253 9.31092 6.32817 9.17955C6.39381 9.04819 6.37125 8.83326 6.3505 8.62382C6.32253 8.3467 6.29457 8.06044 6.43946 7.84805C6.58344 7.63291 6.85745 7.55454 7.12326 7.47887C7.32535 7.42122 7.53291 7.36176 7.62948 7.25064C7.72695 7.14226 7.75899 6.92756 7.79376 6.7211C7.8395 6.44704 7.88434 6.16109 8.08016 5.99279C8.27325 5.8254 8.55903 5.8193 8.83388 5.8168C9.04502 5.81404 9.26163 5.80947 9.38638 5.72863C9.50568 5.64961 9.59504 5.45252 9.67893 5.26638C9.79474 5.01181 9.91055 4.7481 10.1464 4.63665C10.3767 4.52701 10.6506 4.59491 10.9154 4.66276C11.1201 4.71391 11.3321 4.76874 11.4741 4.72181C11.6161 4.67487 11.7537 4.5045 11.8876 4.34142C12.0598 4.12915 12.2411 3.90777 12.4896 3.86219C12.7463 3.81391 12.9983 3.95302 13.243 4.08844C13.4249 4.18977 13.6105 4.29295 13.7534 4.28533C13.9017 4.2759 14.0784 4.15049 14.2469 4.02778C14.4691 3.866 14.7022 3.7006 14.957 3.71996C15.2155 3.74117 15.4237 3.94043 15.621 4.13416C15.7693 4.28014 15.9248 4.42981 16.0685 4.4615C16.2123 4.49319 16.4171 4.41635 16.611 4.34312C16.8696 4.24549 17.1363 4.14514 17.3802 4.2321C17.624 4.31907 17.7721 4.56561 17.9148 4.80482C18.0229 4.98537 18.1329 5.17142 18.2639 5.23779C18.3949 5.30417 18.6088 5.28222 18.8172 5.26207C19.093 5.2349 19.3779 5.20777 19.5925 5.35312C19.8072 5.49847 19.8861 5.77397 19.9624 6.04124C20.0204 6.24443 20.0803 6.45312 20.1913 6.55049C20.2995 6.64877 20.5133 6.68167 20.719 6.71728C20.992 6.76414 21.2768 6.81014 21.445 7.0074C21.6123 7.20192 21.6193 7.489 21.6227 7.7651C21.6261 7.97721 21.6314 8.19481 21.7123 8.32039C21.7914 8.44049 21.9879 8.53091 22.1735 8.6158C22.4273 8.73298 22.6902 8.85019 22.8019 9.08744C22.9118 9.31919 22.8452 9.59408 22.7785 9.85983C22.7283 10.0653 22.6744 10.2781 22.7216 10.4209C22.7688 10.5637 22.9388 10.7025 23.1016 10.8375C23.3135 11.0112 23.5345 11.1941 23.5807 11.4439C23.6296 11.7019 23.492 11.9545 23.358 12.1999C23.2577 12.3823 23.1529 12.5692 23.1637 12.7119C23.1736 12.8609 23.299 13.0388 23.4226 13.2112C23.5844 13.435 23.7499 13.6697 23.7315 13.9256C23.7112 14.1851 23.5135 14.3936 23.3213 14.5912C23.1765 14.7396 23.028 14.8953 22.9969 15.0396C22.9659 15.1839 23.0421 15.3872 23.1166 15.585C23.2147 15.845 23.3154 16.1133 23.2297 16.3579C23.1439 16.6026 22.899 16.7506 22.6613 16.8931C22.4819 17.0011 22.2971 17.111 22.2314 17.2423C22.1658 17.3737 22.1884 17.5886 22.2091 17.798C22.2371 18.0752 22.265 18.3614 22.1211 18.5766C21.9762 18.789 21.7031 18.8701 21.4373 18.9457C21.2352 19.0034 21.0276 19.0629 20.931 19.174C20.8336 19.2824 20.8015 19.4971 20.7668 19.7035C20.721 19.9776 20.6762 20.2635 20.4804 20.4318C20.2873 20.5992 20.0015 20.6053 19.7266 20.6078C19.5155 20.6106 19.3016 20.6142 19.1741 20.696C19.0548 20.775 18.9655 20.9721 18.8816 21.1582C18.7658 21.4128 18.65 21.6765 18.4114 21.7889C18.1847 21.9003 17.9072 21.8306 17.6424 21.7628C17.4377 21.7116 17.2257 21.6568 17.0837 21.7037C16.9417 21.7506 16.8041 21.921 16.6702 22.0841C16.5153 22.2663 16.354 22.4658 16.1383 22.5371ZM14.619 21.8725C14.6736 21.8544 14.73 21.8419 14.7892 21.8375C15.0149 21.8239 15.2414 21.9501 15.457 22.0707C15.6544 22.1822 15.8618 22.2964 16.0156 22.2669C16.1631 22.2364 16.308 22.0606 16.4501 21.8857C16.6095 21.6898 16.7762 21.4885 16.9975 21.4154C17.2187 21.3423 17.4735 21.4073 17.7173 21.4669C17.932 21.5208 18.1568 21.5775 18.2934 21.5141C18.4345 21.4461 18.5302 21.2317 18.6251 21.0237C18.7263 20.7983 18.833 20.562 19.0224 20.4385C19.2163 20.3104 19.4757 20.3069 19.726 20.3034C19.949 20.2998 20.1811 20.2962 20.2967 20.197C20.4142 20.0942 20.4526 19.8622 20.4883 19.6402C20.5277 19.3926 20.5679 19.1386 20.7201 18.9665C20.8722 18.7943 21.1207 18.7213 21.362 18.6538C21.5777 18.5916 21.8017 18.5268 21.8873 18.401C21.9748 18.2715 21.9495 18.0392 21.927 17.8151C21.9017 17.5645 21.8774 17.3076 21.9786 17.1005C22.0798 16.8934 22.3028 16.7618 22.5177 16.6328C22.7099 16.5176 22.9093 16.3968 22.9613 16.2517C23.0106 16.1074 22.9289 15.8877 22.8499 15.6762C22.76 15.4409 22.6701 15.1964 22.7167 14.9708C22.7633 14.7452 22.9418 14.5613 23.1158 14.3819C23.2743 14.2199 23.4365 14.0505 23.4457 13.8951C23.4559 13.7425 23.3204 13.5527 23.1904 13.3702C23.0441 13.1657 22.8923 12.9539 22.8788 12.7207C22.8645 12.494 22.9894 12.2669 23.1088 12.0507C23.2191 11.8528 23.3321 11.6448 23.3022 11.4902C23.2741 11.3411 23.0959 11.1959 22.9212 11.0525C22.7257 10.8917 22.5247 10.7236 22.4512 10.5011C22.3777 10.2787 22.4416 10.023 22.5001 9.7782C22.553 9.56268 22.6088 9.33711 22.5452 9.19971C22.477 9.05772 22.2633 8.96083 22.0558 8.86487C21.8311 8.76245 21.5955 8.65449 21.4719 8.46382C21.3438 8.26855 21.3394 8.00799 21.3351 7.75657C21.3307 7.53258 21.3264 7.29944 21.2273 7.18292C21.1246 7.06456 20.8934 7.02518 20.6723 6.98859C20.4257 6.94824 20.1727 6.90695 20.0009 6.75355C19.829 6.60015 19.7555 6.35027 19.6874 6.10772C19.6248 5.8908 19.5595 5.66563 19.434 5.57916C19.3057 5.4936 19.0736 5.51548 18.8507 5.53739C18.6013 5.56193 18.3455 5.58553 18.139 5.48318C17.9352 5.37993 17.8007 5.1563 17.6717 4.94001C17.5563 4.74662 17.4354 4.5459 17.2908 4.49318C17.147 4.44321 16.9285 4.52456 16.7182 4.60321C16.4833 4.68998 16.2412 4.7822 16.0164 4.73462C15.7917 4.68705 15.608 4.50709 15.4288 4.33172C15.267 4.17197 15.0978 4.00853 14.9431 3.99873C14.7912 3.98803 14.6026 4.12345 14.4214 4.25341C14.2183 4.39974 14.008 4.55152 13.7759 4.56425C13.5502 4.57792 13.3237 4.45172 13.1081 4.33105C12.9107 4.21959 12.7033 4.10536 12.5495 4.13488C12.4011 4.16259 12.2571 4.34116 12.115 4.51608C11.9556 4.71196 11.7898 4.91603 11.5685 4.98915C11.3473 5.06226 11.0925 4.99719 10.8478 4.9349C10.633 4.88097 10.4083 4.82426 10.2717 4.88767C10.1306 4.95564 10.0349 5.17007 9.94003 5.3781C9.83881 5.60348 9.73212 5.8398 9.54271 5.96333C9.34875 6.09141 9.08937 6.09488 8.83909 6.09839C8.61612 6.10202 8.38404 6.10561 8.26837 6.20477C8.15088 6.30757 8.11245 6.53961 8.07676 6.76161C8.03741 7.00919 7.99714 7.26316 7.84501 7.4353C7.69287 7.60744 7.44344 7.67769 7.20312 7.74798C6.98737 7.81014 6.76343 7.87502 6.67777 8.00082C6.59302 8.12936 6.61557 8.36257 6.63812 8.58664C6.66339 8.83723 6.68773 9.09422 6.58653 9.30132C6.48533 9.50841 6.26224 9.64002 6.04735 9.76893C5.85521 9.88422 5.6558 10.005 5.60379 10.1501C5.55452 10.2943 5.63624 10.5141 5.71523 10.7256C5.8024 10.9618 5.89501 11.2054 5.8484 11.431C5.80179 11.6566 5.62325 11.8405 5.44926 12.0199C5.29077 12.1819 5.12862 12.3513 5.11938 12.5066C5.10924 12.6593 5.24468 12.8491 5.37466 13.0316C5.52101 13.236 5.67281 13.4479 5.68626 13.681C5.70062 13.9078 5.57574 14.1349 5.45633 14.3511C5.34603 14.549 5.233 14.7569 5.2629 14.9116C5.29098 15.0607 5.46923 15.2059 5.64384 15.3492C5.83937 15.5101 6.04036 15.6782 6.11388 15.9007C6.18741 16.1231 6.12347 16.3788 6.06501 16.6236C6.01204 16.8391 5.95633 17.0647 6.01991 17.2021C6.08805 17.3441 6.30274 17.4437 6.50925 17.5369C6.73396 17.6393 6.96958 17.7473 7.09319 17.938C7.22134 18.1332 7.22566 18.3938 7.22999 18.6452C7.23435 18.8692 7.23869 19.1023 7.33779 19.2189C7.44053 19.3372 7.67166 19.3766 7.89278 19.4132C8.13938 19.4535 8.39235 19.4948 8.56423 19.6482C8.7361 19.8016 8.8096 20.0515 8.87765 20.2941C8.94025 20.511 9.00558 20.7361 9.1311 20.8226C9.26026 20.9109 9.49145 20.8863 9.71444 20.8644C9.96383 20.8398 10.2196 20.8162 10.4261 20.9186C10.6326 21.0209 10.7644 21.2455 10.8934 21.4618C11.0088 21.6552 11.1297 21.8559 11.2743 21.9086C11.4181 21.9586 11.6366 21.8772 11.8469 21.7986C12.0809 21.7091 12.3239 21.6196 12.5487 21.6672C12.7734 21.7147 12.9571 21.8947 13.1363 22.0701C13.2981 22.2298 13.4673 22.3932 13.622 22.403C13.7739 22.4137 13.9597 22.2792 14.1437 22.1484C14.2958 22.0402 14.4524 21.9275 14.619 21.8725Z" fill="#4A5161"/>
    <path d="M10.5974 17.3947C10.4936 17.429 10.3726 17.4019 10.2944 17.312C9.93981 16.9174 9.63076 16.4773 9.37725 16.0036C7.8199 13.0789 8.72581 9.54119 11.3927 8.11446C14.0597 6.68773 17.4951 7.90716 19.0525 10.8318C19.1415 11.0004 19.226 11.1736 19.2987 11.3476C19.3622 11.4941 19.2938 11.6629 19.1482 11.7263C18.9988 11.7878 18.8342 11.7204 18.7706 11.5739C18.7034 11.4164 18.6271 11.2588 18.5453 11.103C17.1388 8.46056 14.0536 7.34774 11.6644 8.62481C9.27793 9.90098 8.4779 13.0899 9.88442 15.7324C10.1152 16.1649 10.397 16.5683 10.7179 16.9253C10.8243 17.0455 10.8178 17.2274 10.6985 17.3338C10.672 17.3639 10.6356 17.382 10.5974 17.3947Z" fill="white"/>
    <path d="M10.6431 17.5322C10.4819 17.5855 10.3027 17.5381 10.1881 17.4115C9.82443 17.0077 9.50902 16.5575 9.25189 16.0728C8.48321 14.627 8.27168 12.9878 8.66436 11.4628C9.05522 9.93228 10.001 8.69665 11.3276 7.99011C12.6533 7.28082 14.2015 7.18041 15.6881 7.70962C17.1711 8.23698 18.4115 9.3228 19.1802 10.7686C19.2702 10.94 19.3565 11.1186 19.4328 11.2944C19.5263 11.5133 19.426 11.7689 19.2057 11.863C18.9799 11.959 18.7333 11.8546 18.6389 11.633C18.5735 11.481 18.5008 11.3252 18.4208 11.175C17.0534 8.6049 14.0528 7.51895 11.7356 8.75701C9.41829 9.99507 8.64655 13.0955 10.0149 15.6683C10.2402 16.0934 10.5147 16.484 10.8302 16.8337C10.9894 17.0126 10.9764 17.285 10.8024 17.4461C10.7541 17.4833 10.7004 17.5133 10.6431 17.5322ZM12.2369 7.90894C11.9719 7.99649 11.7116 8.10692 11.4621 8.24116C10.2083 8.91144 9.31355 10.0815 8.94187 11.5325C8.56928 12.99 8.77086 14.5532 9.50593 15.934C9.75307 16.3976 10.0539 16.8313 10.4022 17.2158C10.454 17.2718 10.5477 17.2804 10.6051 17.2249C10.6634 17.1721 10.6689 17.0789 10.6135 17.0211C10.2834 16.6549 9.99529 16.2414 9.75814 15.7989C8.31346 13.0867 9.13905 9.81014 11.5947 8.49587C14.0513 7.18435 17.2266 8.32223 18.6685 11.0352C18.7539 11.1928 18.8293 11.3568 18.8974 11.5171C18.9283 11.5922 19.0111 11.6227 19.0894 11.5938C19.124 11.5793 19.1513 11.552 19.1632 11.5145C19.1787 11.479 19.1778 11.4396 19.1633 11.4048C19.0924 11.2363 19.0089 11.0659 18.9216 10.9028C18.1857 9.5193 17.0007 8.48217 15.5869 7.9807C14.4632 7.57828 13.2993 7.55781 12.2369 7.90894Z" fill="#263238"/>
    <path d="M41.9769 50.8711C41.9769 50.8711 52.1692 44.4683 54.5375 40.0299C54.5375 40.0299 55.2598 45.5793 57.9892 47.7237C60.7185 49.868 70.3849 54.734 72.1442 55.7763C73.9034 56.8186 77.4259 59.4746 78.1224 59.1439C78.8216 58.8122 79.7343 54.8549 80.0674 53.7273C80.4015 52.6024 81.3179 51.6537 80.9871 50.0388C80.6555 48.4211 79.7133 48.6319 79.5017 49.2106C79.29 49.7893 77.8812 51.8421 76.8194 52.5983C75.7575 53.3544 74.6183 54.2061 74.6183 54.2061C74.6183 54.2061 70.449 51.2156 66.751 47.3594C63.053 43.5033 57.9387 35.6553 56.6368 34.1542C55.333 32.6567 54.0591 32.4685 52.6935 32.9198C51.328 33.3711 46.9582 34.8153 40.4304 40.729C33.9026 46.6427 35.2649 49.8481 36.388 50.799C37.5094 51.7536 39.6641 52.1595 41.9769 50.8711Z" fill="#4592D0"/>
    <path d="M78.1448 59.2946C77.5767 59.4824 76.0813 58.5326 73.8847 57.0743C73.2089 56.6244 72.5686 56.1994 72.0719 55.9065C71.5753 55.6137 70.4463 55.012 69.0163 54.2508C65.374 52.3138 59.8686 49.387 57.9042 47.8429C55.5641 46.0055 54.6877 41.8048 54.4596 40.4636C51.7818 44.855 42.4582 50.7423 42.0548 50.9974C42.0521 50.9983 42.0493 50.9992 42.0475 51.0029C39.6901 52.3121 37.4617 51.9032 36.2967 50.9173C36.0066 50.672 35.331 49.957 35.3049 48.613C35.2762 47.078 36.1267 44.4451 40.3365 40.6288C46.8871 34.6923 51.2241 33.259 52.6497 32.7878C54.231 32.2652 55.5348 32.672 56.7468 34.0658C57.1859 34.5695 58.0412 35.7735 59.1266 37.2974C61.3499 40.4224 64.3959 44.6981 66.8564 47.2664C70.2134 50.7692 74.007 53.5854 74.6182 54.0323C74.9023 53.8195 75.8513 53.116 76.7364 52.4853C77.7782 51.7419 79.1697 49.7009 79.3677 49.1633C79.489 48.8338 79.7977 48.6221 80.1208 48.6463C80.3447 48.6637 80.8878 48.8315 81.1307 50.0154C81.3727 51.1967 80.9843 52.0196 80.6068 52.8116C80.4518 53.14 80.305 53.4475 80.2073 53.7752C80.1443 53.988 80.0585 54.3058 79.9581 54.6802C79.3536 56.9484 78.7612 59.0056 78.1848 59.2783C78.1721 59.2856 78.1584 59.2901 78.1448 59.2946ZM54.4928 39.8951C54.5147 39.8879 54.5411 39.8853 54.5638 39.89C54.6248 39.9003 54.6721 39.9517 54.6802 40.013C54.6865 40.0688 55.428 45.5296 58.0764 47.6123C60.0209 49.1418 65.5116 52.0611 69.1467 53.9945C70.5804 54.7575 71.7156 55.3602 72.2168 55.6576C72.718 55.955 73.362 56.3819 74.0415 56.8336C75.4731 57.7831 77.6406 59.2175 78.0622 59.0173C78.5675 58.7771 79.3199 55.9573 79.6815 54.604C79.7837 54.226 79.8687 53.9055 79.9316 53.6927C80.0348 53.3449 80.1943 53.0119 80.3457 52.6907C80.7031 51.9389 81.0706 51.1625 80.8476 50.0755C80.7053 49.3883 80.4254 48.963 80.0987 48.9369C79.9058 48.9215 79.7145 49.0578 79.6379 49.2659C79.4253 49.8419 78.0056 51.9348 76.9055 52.7219C75.8564 53.4707 74.719 54.3188 74.7071 54.3288C74.6561 54.367 74.5897 54.3676 74.5378 54.3299C74.4951 54.3014 70.3149 51.287 66.6496 47.4658C64.1728 44.8846 61.1223 40.5951 58.8916 37.4665C57.8117 35.9498 56.9582 34.7514 56.5282 34.2568C55.3853 32.9438 54.218 32.5741 52.7377 33.0633C51.3258 33.53 47.0325 34.9489 40.5256 40.8435C36.3941 44.5852 35.5601 47.1304 35.5879 48.6078C35.6105 49.8311 36.217 50.4745 36.478 50.6959C37.5675 51.6184 39.6631 51.992 41.9003 50.75C42.1307 50.6037 52.099 44.2932 54.4099 39.9652C54.4291 39.9314 54.46 39.906 54.4928 39.8951ZM41.9776 50.8737L41.9803 50.8728L41.9776 50.8737Z" fill="#263238"/>
    <path d="M80.9889 50.0411C80.6572 48.4234 79.7151 48.6343 79.5034 49.213C79.2918 49.7917 77.883 51.8445 76.8211 52.6006C75.7593 53.3567 74.62 54.2085 74.62 54.2085C74.62 54.2085 71.3721 51.8791 68.0676 48.6819C67.5991 50.5275 66.617 51.7173 65.8601 52.3969C68.681 53.92 71.3091 55.2814 72.1459 55.7786C73.9052 56.8209 77.4276 59.4769 78.1242 59.1462C78.8234 58.8146 79.736 54.8572 80.0692 53.7296C80.406 52.6039 81.3233 51.6579 80.9889 50.0411Z" fill="#FEDEA5"/>
    <path d="M78.1449 59.2943C77.5769 59.4821 76.0815 58.5323 73.8849 57.074C73.2091 56.6241 72.5687 56.1991 72.0721 55.9062C71.5754 55.6134 70.4429 55.0099 69.0092 54.2468C68.0386 53.7299 66.9297 53.1428 65.7926 52.5255C65.7517 52.5025 65.7235 52.4631 65.7172 52.4164C65.7109 52.3698 65.7291 52.3241 65.7637 52.2914C66.4942 51.6326 67.4663 50.4675 67.9284 48.6484C67.9421 48.5981 67.9812 48.5608 68.0277 48.5455C68.0777 48.532 68.1305 48.545 68.1669 48.5817C71.1322 51.4493 74.0836 53.6421 74.6156 54.0329C74.8998 53.8202 75.8487 53.1166 76.7339 52.4859C77.7757 51.7425 79.1672 49.7015 79.3651 49.1639C79.4865 48.8344 79.7952 48.6227 80.1182 48.6469C80.3421 48.6643 80.8853 48.8321 81.1282 50.016C81.3701 51.1973 80.9817 52.0202 80.6042 52.8122C80.4492 53.1406 80.3024 53.4481 80.2048 53.7759C80.1418 53.9886 80.056 54.3064 79.9555 54.6808C79.3511 56.949 78.7586 59.0062 78.1823 59.2789C78.1723 59.2853 78.1586 59.2898 78.1449 59.2943ZM66.1068 52.3669C67.1829 52.9465 68.2236 53.5012 69.1451 53.9887C70.5824 54.7536 71.7176 55.3562 72.2188 55.6536C72.72 55.951 73.364 56.378 74.0435 56.8297C75.4751 57.7792 77.6426 59.2136 78.0642 59.0133C78.5695 58.7732 79.3219 55.9534 79.6835 54.6001C79.7857 54.222 79.8707 53.9015 79.9336 53.6888C80.0368 53.3409 80.1963 53.0079 80.3477 52.6868C80.7051 51.935 81.0726 51.1586 80.8496 50.0716C80.7073 49.3844 80.4274 48.959 80.1007 48.933C79.9078 48.9175 79.7165 49.0538 79.6399 49.2619C79.4273 49.8379 78.0076 51.9309 76.9075 52.7179C75.8584 53.4668 74.721 54.3149 74.7091 54.3249C74.6581 54.3631 74.5917 54.3637 74.5398 54.326C74.508 54.303 71.3629 52.0371 68.1475 48.9537C67.6746 50.5936 66.8118 51.6952 66.1068 52.3669Z" fill="#263238"/>
    <path d="M16.4776 20.4817C16.4776 20.4817 18.4962 22.5654 18.896 23.3259C19.2958 24.0864 18.517 24.8647 17.6492 25.3739C16.7814 25.8831 15.1379 25.8323 14.225 27.9923C13.3121 30.1523 12.1279 38.6501 11.9693 39.9668C11.8134 41.2826 12.6564 42.0458 14.034 41.292C15.4117 40.5381 17.6162 34.0092 17.6162 34.0092C17.6162 34.0092 24.4554 38.3686 25.4765 39.4416C26.4985 40.5174 27.0053 42.7291 27.6058 44.986C28.2036 47.2439 28.9333 50.57 31.7966 52.5239C34.6599 54.4777 39.1045 53.8282 41.9738 50.8693C44.8414 47.914 46.5198 40.4256 44.0097 38.4312C41.5014 36.4332 37.3414 36.4128 35.4101 34.3733C33.4788 32.3338 33.431 30.8691 32.6113 28.3891C31.7917 25.9091 30.1889 22.8928 30.1889 22.8928C30.1889 22.8928 35.4703 19.6241 41.8128 16.5134C44.018 15.4312 41.7037 13.2777 40.1939 13.1826C38.3001 13.0621 31.1539 16.2892 29.0721 16.764C26.0673 17.4524 24.7822 18.5504 24.271 19.2403C23.7598 19.9302 23.1155 20.8864 22.3591 21.0633C21.6026 21.2402 19.6079 17.8813 19.6079 17.8813C19.6079 17.8813 18.2099 20.1316 16.4776 20.4817Z" fill="#F37630"/>
    <path d="M38.318 53.3289C36.0266 54.0862 33.5604 53.9021 31.7177 52.6437C28.9681 50.768 28.1599 47.6719 27.5694 45.4086L27.3136 44.433C26.7839 42.4086 26.2814 40.494 25.3757 39.5412C24.4637 38.5784 18.7161 34.8818 17.6973 34.2284C17.3287 35.2946 15.4037 40.7076 14.1053 41.417C13.4196 41.7898 12.8007 41.8329 12.366 41.5349C11.9394 41.2433 11.7424 40.6656 11.8286 39.9456C11.9652 38.7915 13.1613 30.1374 14.0925 27.9318C14.7993 26.2572 15.9218 25.868 16.8212 25.5555C17.1043 25.4588 17.3674 25.3658 17.576 25.2451C17.9639 25.0163 19.1968 24.2098 18.768 23.3888C18.3837 22.6568 16.3942 20.5969 16.3723 20.5767C16.336 20.54 16.3233 20.4833 16.337 20.433C16.3534 20.3819 16.3926 20.3446 16.4463 20.3329C18.0984 19.9971 19.4727 17.8217 19.4873 17.8016C19.5128 17.7597 19.562 17.7343 19.6102 17.7336C19.6594 17.7356 19.7067 17.7596 19.733 17.8027C20.6872 19.4065 21.9199 21.0097 22.3286 20.9173C22.9676 20.7701 23.5544 19.9699 24.0273 19.3292L24.1586 19.1488C24.6305 18.5145 25.8902 17.3396 29.0416 16.618C29.8217 16.4393 31.3721 15.8508 33.0136 15.226C35.8185 14.1619 38.9977 12.9558 40.2035 13.0295C41.2182 13.0932 42.6343 14.06 42.84 15.0948C42.9288 15.5376 42.8336 16.1662 41.8767 16.6348C36.1206 19.4572 31.1834 22.4476 30.3794 22.9388C30.6856 23.5261 32.0257 26.1509 32.7482 28.3371C32.9279 28.8808 33.0677 29.3678 33.2047 29.8373C33.6838 31.4977 34.0295 32.6995 35.517 34.2672C36.499 35.3044 38.0767 35.8066 39.7462 36.3393C41.2875 36.8322 42.8788 37.339 44.1002 38.3122C44.8315 38.8931 45.2674 39.9554 45.3608 41.3838C45.57 44.5834 44.0983 48.8839 42.0779 50.9652C41.0075 52.0805 39.6945 52.874 38.318 53.3289ZM17.5739 33.8732C17.6148 33.8596 17.6594 33.8662 17.6967 33.8874C17.9769 34.0659 24.5614 38.2689 25.5834 39.3446C26.5409 40.3534 27.0515 42.3018 27.5912 44.3656L27.847 45.3412C28.4257 47.5597 29.2194 50.5936 31.879 52.4076C34.7149 54.343 39.1059 53.6229 41.8723 50.7742C43.8117 48.7776 45.2761 44.4916 45.0741 41.4145C44.9842 40.0703 44.5874 39.0804 43.9217 38.551C42.7421 37.6126 41.1744 37.1133 39.6604 36.6296C37.9536 36.0849 36.3413 35.5698 35.3084 34.4793C33.7736 32.8602 33.4007 31.5669 32.9288 29.9285C32.7927 29.4617 32.6539 28.9775 32.476 28.4392C31.6691 25.9977 30.0799 22.9951 30.0645 22.9667C30.03 22.8989 30.051 22.8158 30.1165 22.7759C30.1693 22.7432 35.4762 19.4691 41.7532 16.3892C42.3896 16.0784 42.6621 15.6654 42.5633 15.1649C42.383 14.2619 41.0859 13.3897 40.1914 13.332C39.0465 13.2595 35.76 14.5072 33.1198 15.5108C31.3974 16.1653 29.9088 16.7304 29.1087 16.9126C26.0447 17.6145 24.8388 18.7321 24.3896 19.3344L24.2574 19.5121C23.7581 20.192 23.1376 21.0368 22.3948 21.2092C21.6493 21.3825 20.1215 19.0056 19.6044 18.1559C19.2381 18.6883 18.1319 20.1536 16.75 20.5646C17.2519 21.0933 18.6822 22.616 19.0202 23.2628C19.39 23.9692 18.906 24.8055 17.7186 25.5026C17.4873 25.6369 17.2078 25.7354 16.9147 25.8383C16.0662 26.1309 15.012 26.4976 14.3545 28.0554C13.4352 30.2327 12.2482 38.8412 12.1098 39.9897C12.0373 40.5955 12.1871 41.0761 12.5227 41.3033C12.8665 41.537 13.378 41.4898 13.9635 41.1714C15.0161 40.5981 16.7218 36.2081 17.4782 33.9688C17.4983 33.9195 17.5302 33.8876 17.5739 33.8732Z" fill="#263238"/>
    <path d="M32.2052 15.6942C32.0195 15.7647 31.8365 15.8343 31.6581 15.8994C32.0047 17.0765 32.7885 18.9439 34.4673 20.3935C34.6412 20.2965 34.8224 20.1939 35.0036 20.0914C33.3211 18.713 32.5419 16.832 32.2052 15.6942Z" fill="#263238"/>
    <path d="M34.653 33.4681C34.534 33.3095 34.424 33.1508 34.324 32.995C30.4968 35.2835 27.8906 39.1303 26.5817 41.4304C26.6689 41.6666 26.7496 41.911 26.8313 42.1673C28.0063 40.003 30.6511 35.8418 34.653 33.4681Z" fill="#263238"/>
    <path d="M24.6984 38.7842C24.8766 38.9202 25.0367 39.0471 25.1668 39.1564C25.9945 37.5272 28.2593 33.8846 33.2396 30.4656C33.1825 30.2743 33.1253 30.0738 33.0681 29.8734C27.9395 33.3292 25.5991 37.0181 24.6984 38.7842Z" fill="#263238"/>
    <path d="M17.6122 30.9724C18.5573 30.5413 22.9969 28.2819 28.335 21.6282C29.2134 22.4985 29.9546 23.073 30.0201 23.1245C30.0974 23.1842 30.1993 23.1993 30.2867 23.1704C30.3004 23.1659 30.3158 23.1577 30.3286 23.1505C30.245 22.9892 30.1959 22.8958 30.1959 22.8958C30.1959 22.8958 30.2815 22.8431 30.44 22.7451C30.4209 22.7148 30.4 22.6882 30.3709 22.6643C30.3381 22.6386 27.2532 20.2523 26.1987 17.7585C26.0166 17.8492 25.8445 17.9426 25.6907 18.0361C25.9023 18.5206 26.1785 18.999 26.4921 19.4528C22.6012 24.9123 17.7819 27.3612 16.4581 27.9571C16.0856 27.2882 15.7102 26.7664 15.4138 26.4013C15.2663 26.514 15.1205 26.6414 14.9803 26.7944C15.2348 27.1155 15.5566 27.5666 15.881 28.1357C15.4271 27.8531 14.9276 27.6709 14.4399 27.5518C14.367 27.6886 14.2931 27.8318 14.2275 27.9906C14.2138 28.0226 14.201 28.0573 14.1873 28.0892C15.0963 28.2914 16.057 28.7325 16.5995 29.659C16.7902 30.1535 16.9581 30.6981 17.0841 31.2901C16.4531 30.664 15.3398 29.8895 13.6771 29.8542C13.6341 30.0359 13.5912 30.2268 13.5491 30.4204C16.0729 30.4028 17.1634 32.254 17.227 32.364C17.2397 32.3842 17.2542 32.4007 17.2715 32.4163C17.3067 32.7337 17.3292 33.0583 17.3353 33.3975C16.604 32.8623 15.1022 32.0122 13.1854 32.2162C13.1497 32.4107 13.1113 32.6062 13.0765 32.8035C15.3266 32.4711 16.9454 33.7761 17.331 34.127C17.3253 34.3756 17.3233 34.617 17.3203 34.8556C17.5092 34.3362 17.6205 34.0039 17.6205 34.0039C17.6205 34.0039 17.7242 34.0701 17.9043 34.1843C17.9062 34.1258 17.9062 34.0709 17.9081 34.0124C17.9418 32.8954 17.8208 31.8783 17.6122 30.9724ZM26.843 19.9461C27.1903 20.401 27.5612 20.8268 27.9276 21.2114C22.8547 27.549 18.5187 29.8929 17.4626 30.4004C17.3873 30.1359 17.3038 29.8832 17.2175 29.6406C17.2148 29.6049 17.2048 29.5656 17.1876 29.5317C17.1803 29.5189 17.173 29.506 17.1649 29.4904C17.0259 29.1251 16.877 28.7844 16.7225 28.4729C18.1383 27.8253 22.9349 25.3535 26.843 19.9461Z" fill="#263238"/>
    <path d="M36.8609 35.4097C36.6671 35.3093 36.4816 35.2061 36.3042 35.0911C32.0023 38.0238 29.1475 41.9803 27.5379 44.7178C27.5615 44.8075 27.5851 44.8972 27.6087 44.9869C27.6522 45.1553 27.6985 45.3319 27.7447 45.5086C29.2824 42.7826 32.234 38.4774 36.8609 35.4097Z" fill="#263238"/>
    <path d="M32.4149 27.8135C32.3495 27.6341 32.2805 27.4528 32.2115 27.2715C25.327 29.9611 23.0658 34.7145 22.3402 37.1111C22.5085 37.2261 22.6731 37.3393 22.8368 37.4497C23.4576 35.2491 25.5532 30.4987 32.4149 27.8135Z" fill="#263238"/>
    <path d="M35.8013 14.3469C35.6147 14.4147 35.4281 14.4825 35.2387 14.5511C35.4634 15.7716 35.998 17.3801 37.2281 18.8745C37.4001 18.7811 37.5759 18.6895 37.7534 18.5943C36.5252 17.1328 36.0124 15.5262 35.8013 14.3469Z" fill="#263238"/>
    <path d="M28.3458 16.9514C29.009 18.2797 30.1804 20.2475 31.9164 21.861C32.0812 21.7639 32.256 21.6604 32.4391 21.5542C30.7576 20.0323 29.5944 18.1167 28.9202 16.8011C28.7245 16.8506 28.5315 16.8991 28.3458 16.9514Z" fill="#263238"/>
    <path d="M31.1859 24.9021C31.1005 24.717 31.016 24.5439 30.937 24.3781C23.3182 27.9624 20.4527 32.6656 19.4221 35.1753C19.5849 35.2829 19.7541 35.3915 19.9287 35.5075C20.9046 33.1347 23.6945 28.4412 31.1859 24.9021Z" fill="#263238"/>
    <path d="M41.9774 50.871C44.3503 48.4265 45.9069 42.8794 44.9521 39.9079C44.7478 39.3539 44.4506 38.8946 44.0504 38.573C43.7121 38.301 43.3456 38.0261 42.9627 37.7474C41.731 37.0822 40.2906 36.6839 38.9441 36.2394C33.6736 40.5129 30.3654 46.6998 28.9836 49.1367C29.595 50.3999 30.4622 51.6122 31.8001 52.5256C34.6634 54.4795 39.108 53.83 41.9774 50.871Z" fill="#4592D0"/>
    <path d="M38.3179 53.329C36.0265 54.0864 33.5603 53.9022 31.7175 52.6438C30.5133 51.8233 29.5741 50.6958 28.8519 49.198C28.8319 49.1559 28.8329 49.1038 28.8557 49.0627L29.1136 48.6058C30.6559 45.8661 33.8626 40.1697 38.8517 36.1263C38.8899 36.0954 38.9382 36.0855 38.9864 36.1031C39.2348 36.1855 39.485 36.2643 39.7388 36.3449C40.857 36.7034 42.0153 37.0731 43.0295 37.6213C43.4679 37.9395 43.8263 38.2079 44.1373 38.4616C44.542 38.7878 44.8611 39.2581 45.0835 39.8579C46.0438 42.8458 44.5245 48.4507 42.0777 50.9745C41.0074 52.0807 39.6943 52.8741 38.3179 53.329ZM29.145 49.1407C29.84 50.5561 30.7355 51.6249 31.8807 52.4041C34.7167 54.3395 39.1076 53.6194 41.8741 50.7707C44.2625 48.3088 45.7453 42.8501 44.814 39.95C44.6125 39.4043 44.3234 38.9789 43.9596 38.6848C43.6504 38.4366 43.2985 38.1691 42.8792 37.8629C41.9022 37.3359 40.7603 36.9699 39.6531 36.617C39.4256 36.5429 39.199 36.4715 38.9743 36.3965C34.0636 40.4018 30.8933 46.0344 29.3684 48.744L29.145 49.1407Z" fill="#4592D0"/>
    <path d="M10.6132 16.2684C10.4976 16.3127 10.3902 16.3726 10.2918 16.4508C9.49402 17.0709 9.58012 18.523 10.4855 19.6951C11.3883 20.8682 12.7667 21.3174 13.5654 20.7C13.7338 20.5682 13.8605 20.4014 13.9508 20.2071L10.6132 16.2684Z" fill="white"/>
    <path d="M13.2211 21.0428C12.8688 21.1592 12.4565 21.1493 12.0189 21.0075C11.4111 20.8093 10.8254 20.3754 10.369 19.7829C9.91357 19.1931 9.64387 18.5146 9.60439 17.8726C9.56401 17.2097 9.77745 16.6639 10.2018 16.3348C10.3102 16.2502 10.4304 16.1831 10.5597 16.1342C10.617 16.1153 10.6816 16.1274 10.7216 16.1751L14.0555 20.112C14.091 20.1551 14.0991 20.2164 14.0763 20.2666C13.9715 20.4901 13.8293 20.6742 13.6508 20.8124C13.5206 20.9133 13.3767 20.9913 13.2211 21.0428ZM10.574 16.4433C10.5039 16.4786 10.441 16.5177 10.3809 16.565C10.0339 16.835 9.86154 17.2941 9.89563 17.8556C9.93061 18.4381 10.1822 19.0617 10.6012 19.6056C11.0203 20.1495 11.5588 20.5503 12.1119 20.73C12.6478 20.9032 13.1339 20.8523 13.4781 20.5831C13.5983 20.4886 13.7013 20.3692 13.7806 20.2242L10.574 16.4433Z" fill="#263238"/>
    <path d="M10.6133 16.2688C10.4977 16.3131 10.3902 16.373 10.2919 16.4512C10.1999 16.5212 10.1216 16.605 10.055 16.697L13.5162 20.735C13.5336 20.7232 13.5518 20.7141 13.5682 20.6996C13.7366 20.5677 13.8633 20.401 13.9536 20.2066L10.6133 16.2688Z" fill="white"/>
    <path d="M13.572 20.8592C13.5146 20.8782 13.44 20.8724 13.4037 20.8265L9.94245 16.7885C9.8979 16.7362 9.89432 16.6613 9.93714 16.6075C10.0173 16.5018 10.1048 16.4089 10.2013 16.3344C10.3097 16.2498 10.4299 16.1827 10.5592 16.1338C10.6165 16.1149 10.6811 16.127 10.7211 16.1748L14.055 20.1116C14.0905 20.1548 14.0986 20.216 14.0758 20.2662C13.9709 20.4898 13.8288 20.6738 13.6503 20.812C13.6357 20.8229 13.623 20.8302 13.6084 20.8411C13.5957 20.8484 13.5857 20.8547 13.572 20.8592ZM10.241 16.6929L13.5313 20.5345C13.6315 20.4435 13.7108 20.3442 13.7746 20.2256L10.5707 16.4438C10.5006 16.4792 10.4378 16.5182 10.3777 16.5655C10.3294 16.6028 10.2829 16.6455 10.241 16.6929Z" fill="#263238"/>
    <path d="M17.9307 10.7892C18.0036 10.6889 18.0883 10.597 18.1876 10.5215C18.9854 9.9014 20.3638 10.3506 21.2665 11.5237C22.1719 12.6958 22.258 14.1479 21.4629 14.7671C21.2945 14.899 21.0996 14.9786 20.8912 15.017L17.9307 10.7892Z" fill="white"/>
    <path d="M21.126 15.1064C21.0577 15.129 20.9876 15.1461 20.9139 15.1613C20.8593 15.1702 20.8038 15.149 20.7702 15.1022L17.8097 10.8743C17.7751 10.8248 17.7743 10.7581 17.8089 10.707C17.8891 10.5922 17.9866 10.493 18.0949 10.4084C18.9537 9.74377 20.4259 10.2016 21.3768 11.438C21.8322 12.0277 22.1046 12.7054 22.1414 13.3482C22.1818 14.0111 21.9711 14.556 21.5467 14.8852C21.4237 14.9806 21.2844 15.0541 21.126 15.1064ZM20.9497 14.857C21.109 14.8166 21.2501 14.7486 21.3703 14.654C21.7173 14.384 21.8897 13.9249 21.8556 13.3634C21.8197 12.7782 21.5691 12.1573 21.15 11.6134C20.2964 10.5064 19.0035 10.0685 18.2704 10.6368C18.2103 10.6841 18.1547 10.7359 18.1046 10.7951L20.9497 14.857Z" fill="#263238"/>
    <path d="M21.126 15.1066C21.0578 15.1292 20.9877 15.1463 20.9139 15.1615C20.8593 15.1704 20.8038 15.1491 20.7702 15.1024L17.8097 10.8745C17.7752 10.825 17.7743 10.7583 17.8089 10.7072C17.8891 10.5924 17.9866 10.4931 18.095 10.4086C18.1915 10.334 18.3008 10.2705 18.4237 10.2207C18.4874 10.1936 18.5584 10.2158 18.5984 10.2727L21.6225 14.6471C21.6643 14.7094 21.6551 14.7916 21.5977 14.838C21.5722 14.8617 21.5613 14.8744 21.5458 14.8826C21.4238 14.9808 21.2845 15.0543 21.126 15.1066ZM20.9497 14.8572C21.0844 14.8249 21.2028 14.7705 21.3093 14.6988L18.4307 10.5353C18.3742 10.5661 18.3187 10.5997 18.2704 10.637C18.2103 10.6842 18.1548 10.7361 18.1047 10.7953L20.9497 14.8572Z" fill="#263238"/>
    <path d="M23.6202 20.1043C23.2457 20.5571 22.8258 20.9548 22.3643 21.0616C21.6078 21.2385 19.6131 17.8796 19.6131 17.8796C19.6131 17.8796 18.2114 20.128 16.4792 20.4781C16.4792 20.4781 18.4978 22.5619 18.8976 23.3224C19.2219 23.9372 18.7718 24.5642 18.1298 25.0506C18.8161 25.9631 20.7237 27.9403 23.4291 26.245C25.7939 24.7658 24.5925 21.7997 23.6202 20.1043Z" fill="#FEDEA5"/>
    <path d="M22.4523 26.8746C20.21 27.6156 18.637 25.9726 18.0107 25.1408C17.988 25.1087 17.9789 25.0721 17.9817 25.0346C17.9871 24.9962 18.0063 24.9625 18.0382 24.9398C18.4498 24.627 19.092 24.0127 18.7658 23.3924C18.3814 22.6603 16.3919 20.6005 16.3701 20.5803C16.3337 20.5435 16.3211 20.4868 16.3348 20.4366C16.3512 20.3855 16.3903 20.3481 16.4441 20.3365C18.0962 20.0007 19.4705 17.8252 19.4851 17.8052C19.5106 17.7632 19.5598 17.7378 19.608 17.7371C19.6571 17.7392 19.7045 17.7631 19.7308 17.8062C20.685 19.4101 21.9177 21.0133 22.3264 20.9209C22.6832 20.8364 23.0603 20.5473 23.504 20.0107C23.534 19.9734 23.5796 19.9553 23.626 19.9582C23.6724 19.9612 23.7151 19.9897 23.7378 20.0309C24.712 21.7318 25.9789 24.8134 23.4966 26.368C23.1369 26.5996 22.7882 26.7636 22.4523 26.8746ZM18.3293 25.0781C19.062 26.0027 20.8571 27.6851 23.3494 26.1242C25.5457 24.7494 24.5015 21.9933 23.5965 20.3549C23.295 20.6982 22.8769 21.0923 22.3953 21.2027C21.6498 21.376 20.122 18.999 19.6049 18.1494C19.2386 18.6817 18.1325 20.1471 16.7506 20.5581C17.2525 21.0868 18.6827 22.6095 19.0207 23.2563C19.3224 23.8299 19.0743 24.4724 18.3293 25.0781Z" fill="#FEDEA5"/>
    <path d="M20.8781 19.7734C20.5645 19.3562 20.2636 18.9133 20.0346 18.5595C19.8764 18.365 19.72 18.1578 19.5664 17.9496C19.3258 18.3124 18.0382 20.1637 16.4735 20.4798C16.4735 20.4798 17.1554 21.1866 17.8055 21.9252C18.5136 21.9045 19.4693 21.7531 20.0596 21.1468C20.4331 20.7644 20.6938 20.2608 20.8781 19.7734Z" fill="#263238"/>
    <path d="M19.1447 21.8536C18.6914 22.0035 18.2117 22.0554 17.8131 22.0683C17.7712 22.07 17.7285 22.0506 17.7003 22.0203C17.0593 21.2908 16.3782 20.5868 16.3728 20.5794C16.3364 20.5427 16.3237 20.486 16.3374 20.4357C16.3538 20.3846 16.393 20.3473 16.4467 20.3356C17.9523 20.033 19.2089 18.2255 19.4476 17.8663C19.4741 17.8271 19.5178 17.8035 19.566 17.8028C19.6142 17.8021 19.6579 17.8242 19.6852 17.8609C19.8461 18.0819 20.0015 18.2864 20.1479 18.4635C20.4442 18.92 20.7332 19.3363 20.9923 19.6802C21.0232 19.7187 21.0286 19.7718 21.014 19.8193C20.7878 20.418 20.5034 20.8958 20.1691 21.2409C19.8822 21.5368 19.5216 21.7291 19.1447 21.8536ZM17.8716 21.7779C18.5414 21.7514 19.4207 21.5979 19.9591 21.0453C20.2524 20.7412 20.5076 20.3217 20.7128 19.797C20.3983 19.3769 20.1047 18.9378 19.912 18.6389C19.8066 18.5123 19.6902 18.3619 19.5702 18.2005C19.1766 18.7602 18.0923 20.1634 16.7487 20.5618C16.9878 20.8087 17.4361 21.2851 17.8716 21.7779Z" fill="#263238"/>
    <path d="M10.4818 15.3218C10.4818 15.3218 12.7456 19.0365 13.766 19.8874C14.7873 20.741 17.6082 21.2192 18.7861 20.9791C19.964 20.7391 20.2985 19.0657 20.5882 17.7058C20.8779 16.3458 20.7668 15.3406 20.0145 13.9533C19.2594 12.567 17.6185 10.5077 16.5309 9.45359C15.8262 8.76954 13.5111 8.59337 11.7982 9.6804C10.0854 10.7674 9.43974 13.2869 10.4818 15.3218Z" fill="#FEDEA5"/>
    <path d="M18.9855 21.0778C18.9309 21.0958 18.8754 21.1111 18.8153 21.1219C17.5409 21.3816 14.7128 20.8632 13.676 19.9994C12.6475 19.1422 10.4545 15.5502 10.3618 15.398C10.3609 15.3953 10.3573 15.3934 10.3555 15.3879C9.29792 13.3247 9.9118 10.7091 11.7221 9.55938C13.5178 8.42059 15.9002 8.64459 16.6313 9.35344C17.6961 10.3846 19.3616 12.454 20.1421 13.8899C20.8818 15.2478 21.0392 16.2925 20.7303 17.7411L20.713 17.8169C20.4379 19.1111 20.0971 20.7104 18.9855 21.0778ZM10.6068 15.2501C10.6986 15.3995 12.8815 18.9612 13.8564 19.7753C14.815 20.5765 17.5512 21.0827 18.7545 20.8373C19.8168 20.6233 20.1568 19.0304 20.4309 17.7517L20.4483 17.6759C20.7462 16.2858 20.5996 15.3289 19.889 14.0223C19.1221 12.6093 17.4803 10.5747 16.4318 9.55645C15.7817 8.92749 13.5321 8.74793 11.8775 9.80047C10.1874 10.8739 9.6192 13.316 10.6068 15.2501Z" fill="#263238"/>
    <path d="M15.4806 16.3505C15.4724 16.3532 15.4642 16.356 15.4551 16.3559C15.3768 16.3666 15.3049 16.3141 15.2914 16.2364C15.2896 16.2217 15.2371 15.8705 15.4821 15.5762C15.6844 15.3357 16.0185 15.2101 16.4736 15.2029C16.5518 15.2014 16.6182 15.2647 16.6209 15.3461C16.6226 15.4247 16.557 15.4921 16.4788 15.4936C16.1111 15.4994 15.8498 15.5888 15.704 15.7618C15.5428 15.9522 15.5735 16.1919 15.5744 16.1946C15.588 16.2632 15.5461 16.3289 15.4806 16.3505Z" fill="#263238"/>
    <path d="M16.4149 17.8111C15.7649 18.0259 15.1962 17.9183 15.1826 17.9137C15.1043 17.8969 15.0552 17.8218 15.069 17.7441C15.0854 17.6656 15.1601 17.6165 15.2374 17.6305C15.3221 17.6483 17.3294 18.0206 17.8922 15.5437C17.9086 15.4652 17.987 15.418 18.0652 15.4347C18.1435 15.4515 18.1907 15.5303 18.1743 15.6089C17.8572 17.0145 17.0923 17.5872 16.4149 17.8111Z" fill="#263238"/>
    <path d="M13.4318 16.8964C13.1232 16.9984 12.8921 16.959 12.873 16.9562C12.7183 16.9281 12.6138 16.7768 12.6403 16.6188C12.6677 16.4635 12.8153 16.3599 12.969 16.3853C13.0045 16.3918 13.6415 16.4585 14.1294 15.3955C14.1968 15.2514 14.3662 15.1863 14.5099 15.2545C14.6536 15.3228 14.719 15.4931 14.6516 15.6373C14.2795 16.4548 13.8005 16.7746 13.4318 16.8964Z" fill="#263238"/>
    <path d="M16.9726 14.191C16.6913 14.284 16.4091 14.3194 16.1907 14.3185C16.0332 14.3187 15.9023 14.1883 15.9034 14.0265C15.9026 13.8684 16.0319 13.7373 16.1903 13.7398C16.2422 13.7409 17.4681 13.7287 17.5035 12.8183C17.5082 12.6584 17.643 12.5346 17.8022 12.5399C17.9615 12.5451 18.0851 12.6809 18.0804 12.8409C18.0516 13.6151 17.5161 14.0114 16.9726 14.191Z" fill="#263238"/>
    <path d="M12.081 15.6884C12.01 15.7118 11.9318 15.6768 11.9027 15.6072C11.8891 15.5751 11.5685 14.7976 11.914 14.1381C12.1246 13.7395 12.5253 13.4761 13.1105 13.3588C13.187 13.3427 13.2643 13.3933 13.2815 13.4729C13.2979 13.5498 13.2505 13.6263 13.1685 13.6443C12.6715 13.7446 12.3355 13.9562 12.1687 14.2763C11.8861 14.8145 12.164 15.4904 12.1667 15.4986C12.1976 15.5737 12.1648 15.6577 12.0901 15.6884C12.0892 15.6857 12.0837 15.6875 12.081 15.6884Z" fill="#263238"/>
    <path d="M14.8406 12.3971C14.8078 12.4079 14.7714 12.4077 14.736 12.392C14.6641 12.3579 14.6305 12.2746 14.6633 12.1998C14.6688 12.1888 15.2414 10.9607 16.7819 11.3229C16.8601 11.3397 16.9074 11.4185 16.8909 11.497C16.8745 11.5756 16.7962 11.6228 16.7179 11.606C15.404 11.2969 14.9299 12.3097 14.9244 12.3206C14.9071 12.3599 14.8761 12.3853 14.8406 12.3971Z" fill="#263238"/>
    <path d="M8.77188 17.9725C8.77188 17.9725 9.25964 20.1174 9.63601 20.587C10.0124 21.0567 12.4775 22.475 12.9659 22.8345C13.4543 23.194 13.5417 23.2382 13.2964 24.7328C13.0512 26.2274 10.243 36.3008 10.728 38.4466C11.2157 40.5916 11.9695 42.4231 14.0355 41.2955C16.1042 40.167 15.5288 34.1822 15.4217 30.7233C15.3146 27.2645 14.9627 22.8448 14.674 21.9714C14.3863 21.1008 10.8662 19.8545 10.4814 19.6984C10.0993 19.5413 9.58874 18.4458 9.38995 17.8443C9.19208 17.2365 8.85889 17.3466 8.77188 17.9725Z" fill="#FEDEA5"/>
    <path d="M13.5481 41.6656C13.0729 41.8227 12.647 41.8172 12.2758 41.6475C11.3269 41.2147 10.8904 39.8023 10.5903 38.4727C10.2213 36.8429 11.6891 30.8347 12.566 27.2457C12.8601 26.0365 13.0957 25.0813 13.1561 24.7049C13.3848 23.3163 13.3294 23.2768 12.9001 22.9586C12.7282 22.8327 12.3543 22.5998 11.9195 22.3292C10.9735 21.7401 9.79288 21.0092 9.52469 20.6744C9.13832 20.1928 8.68136 18.2236 8.6324 18.0021C8.62969 17.9848 8.62697 17.9674 8.62972 17.9482C8.68649 17.5517 8.84142 17.3146 9.05258 17.2936C9.16726 17.2831 9.38109 17.3343 9.53177 17.7902C9.7714 18.5153 10.263 19.4434 10.5395 19.5561C10.5786 19.5736 10.6542 19.6005 10.7579 19.6393C13.3353 20.6183 14.6252 21.3405 14.8158 21.9173C15.1199 22.8373 15.4646 27.3174 15.5708 30.7094C15.5859 31.1492 15.6046 31.6274 15.6287 32.1312C15.7831 35.614 15.9928 40.3824 14.1089 41.4102C13.9132 41.5237 13.7256 41.607 13.5481 41.6656ZM8.91457 17.9668C9.0551 18.5753 9.456 20.1366 9.74418 20.4953C9.98146 20.7916 11.2358 21.5712 12.0663 22.0857C12.5238 22.3701 12.8822 22.5929 13.0468 22.7152C13.6143 23.1308 13.6779 23.2865 13.4355 24.7527C13.3723 25.1391 13.1358 26.1008 12.8407 27.3163C11.9712 30.8816 10.5135 36.8469 10.867 38.4117C11.1372 39.5958 11.551 41.0036 12.3916 41.3838C12.8228 41.5794 13.338 41.5066 13.9672 41.1646C15.6944 40.2221 15.4856 35.557 15.3356 32.1519C15.3133 31.6445 15.291 31.1644 15.2786 30.7237C15.1645 27.051 14.8041 22.8168 14.5382 22.0121C14.4311 21.688 13.6689 21.0595 10.6521 19.9149C10.5474 19.8734 10.4683 19.8447 10.4264 19.8281C9.96063 19.6378 9.43382 18.4379 9.25047 17.8832C9.16968 17.6387 9.08782 17.5835 9.06962 17.5835C9.05232 17.5861 8.96307 17.6644 8.91457 17.9668Z" fill="#263238"/>
    <path d="M15.4227 30.7194C15.4121 30.3756 15.3988 30.0236 15.3836 29.6661L12.1693 29.4825C11.3463 32.9319 10.4325 37.1424 10.729 38.4427C11.2167 40.5876 11.9705 42.4192 14.0365 41.2916C16.1052 40.1631 15.5307 34.181 15.4227 30.7194Z" fill="#F26F1F"/>
    <path d="M13.5483 41.666C13.0731 41.823 12.6472 41.8176 12.276 41.6478C11.3271 41.215 10.8906 39.8026 10.5905 38.473C10.2823 37.1096 11.2654 32.6689 12.0337 29.4478C12.051 29.3812 12.1111 29.3339 12.1821 29.3379L15.3955 29.5188C15.4692 29.5218 15.5283 29.5815 15.5319 29.6565C15.547 30.014 15.5613 30.3687 15.5719 30.7125C15.587 31.1523 15.6057 31.6305 15.6298 32.1343C15.7842 35.6171 15.9939 40.3855 14.11 41.4133C13.9134 41.524 13.7258 41.6073 13.5483 41.666ZM12.2829 29.6336C11.5265 32.8172 10.5772 37.1218 10.87 38.4111C11.1402 39.5952 11.5539 41.003 12.3945 41.3832C12.8258 41.5788 13.3409 41.506 13.9701 41.164C15.6974 40.2215 15.4885 35.5564 15.3386 32.1514C15.3163 31.6439 15.2939 31.1639 15.2816 30.7232C15.2727 30.4215 15.2621 30.1142 15.2469 29.8024L12.2829 29.6336Z" fill="#263238"/>
    <path d="M11.59 32.0105C11.5854 32.0334 11.5808 32.0562 11.5762 32.079C11.5644 32.1347 11.5516 32.1877 11.5397 32.2434C11.5132 32.3649 11.4894 32.4855 11.462 32.6042C12.2475 32.5335 13.6136 32.4689 15.4992 32.5737C15.4912 32.3753 15.4823 32.1833 15.4743 31.994C13.7179 31.8952 12.41 31.9436 11.59 32.0105Z" fill="#263238"/>
    <path d="M15.1563 39.5932C15.2174 39.3842 15.2704 39.1595 15.317 38.9247C13.5045 39.5634 12.0446 39.6742 11.049 39.6316C11.1179 39.8404 11.1924 40.0381 11.2723 40.225C12.2443 40.2419 13.5595 40.1149 15.1563 39.5932Z" fill="#263238"/>
    <path d="M10.884 35.659C10.8749 35.7138 10.8657 35.7687 10.8593 35.8226C10.8511 35.8801 10.841 35.9413 10.8328 35.9989C10.819 36.0948 10.8089 36.1835 10.797 36.2757C11.9085 36.0272 13.6369 35.785 15.5734 36.0254C15.5763 35.8325 15.5783 35.6368 15.5776 35.4421C13.6993 35.2129 12.0282 35.418 10.884 35.659Z" fill="#263238"/>
    <path d="M19.5976 9.1514C19.5976 9.1514 21.6939 9.79288 22.1322 10.2025C22.5714 10.6148 23.8024 13.1843 24.1241 13.6994C24.4458 14.2146 24.4849 14.3052 25.9876 14.1681C27.4894 14.0281 37.697 11.934 39.7906 12.5763C41.8869 13.2178 43.6517 14.1029 42.3831 16.0941C41.1145 18.0854 35.2125 17.084 31.7836 16.7276C28.3546 16.3712 23.9904 15.7055 23.1443 15.3545C22.2982 15.0036 21.3121 11.3874 21.185 10.9938C21.058 10.6002 20.0055 10.0097 19.4196 9.76772C18.8392 9.52392 18.9732 9.19629 19.5976 9.1514Z" fill="#FEDEA5"/>
    <path d="M41.1747 17.0865C39.2138 17.7346 35.8231 17.3381 33.1823 17.0289C32.6818 16.972 32.2086 16.9151 31.7727 16.8703C28.4102 16.5224 23.985 15.8555 23.0934 15.4861C22.5348 15.2533 21.9062 13.9105 21.1204 11.2578C21.0886 11.1526 21.0659 11.0748 21.0523 11.0336C20.9606 10.747 20.0729 10.1875 19.3705 9.8956C18.9284 9.71272 18.8922 9.49316 18.9096 9.38079C18.9425 9.16884 19.1911 9.03185 19.5879 9.00427C19.6061 9.00435 19.6243 9.00442 19.6416 9.0109C19.86 9.07581 21.7816 9.67451 22.2326 10.0951C22.5482 10.3899 23.1887 11.6222 23.7066 12.6117C23.9437 13.0634 24.1463 13.4565 24.249 13.6205C24.5444 14.0926 24.5789 14.1512 25.9751 14.0218C26.3538 13.985 27.3204 13.8209 28.542 13.6122C32.1683 12.9894 38.2405 11.9482 39.8346 12.4359C41.1293 12.8335 42.5031 13.3696 42.8672 14.352C43.0624 14.8785 42.9408 15.4914 42.5079 16.1707C42.2363 16.5955 41.7728 16.8888 41.1747 17.0865ZM19.3364 9.34329C19.2299 9.37849 19.1953 9.42039 19.1926 9.43044C19.1916 9.44597 19.2416 9.53303 19.4772 9.63185C20.014 9.85353 21.1684 10.4682 21.3236 10.9469C21.3372 10.9881 21.3608 11.0687 21.3935 11.1767C22.3163 14.2806 22.8862 15.0884 23.1992 15.2196C23.9789 15.5437 28.1575 16.2068 31.7984 16.5815C32.2343 16.6263 32.7103 16.6823 33.2117 16.742C36.5832 17.1356 41.2024 17.6745 42.2623 16.0142C42.6496 15.4079 42.7566 14.8973 42.5941 14.4514C42.2735 13.5825 40.9061 13.0657 39.7506 12.7134C38.2239 12.2462 32.1945 13.2793 28.5909 13.8976C27.3611 14.1091 26.3917 14.2741 26.0013 14.3118C24.5259 14.449 24.3767 14.3734 24.0159 13.7951C23.895 13.6035 23.7006 13.226 23.4489 12.7487C22.9955 11.881 22.3132 10.5681 22.034 10.31C21.6966 9.99503 20.1754 9.48031 19.5822 9.29861C19.4757 9.30639 19.3965 9.32343 19.3364 9.34329Z" fill="#263238"/>
    <path d="M31.7855 16.7265C31.447 16.6921 31.0948 16.6531 30.7417 16.6114L30.791 13.3782C34.2753 12.8023 38.5251 12.1868 39.7925 12.5752C41.8888 13.2167 43.6537 14.1018 42.3851 16.093C41.1165 18.0842 35.2144 17.0829 31.7855 16.7265Z" fill="#F26F1F"/>
    <path d="M41.1747 17.0869C39.2138 17.735 35.8231 17.3385 33.1823 17.0293C32.6818 16.9723 32.2085 16.9155 31.7726 16.8707C31.4305 16.8345 31.082 16.7974 30.7261 16.7565C30.6533 16.7471 30.5961 16.6838 30.5989 16.6097L30.6481 13.3765C30.6491 13.3061 30.6964 13.2478 30.7684 13.2362C34.0224 12.6969 38.5034 12.0293 39.8373 12.4353C41.132 12.833 42.5058 13.369 42.8699 14.3515C43.0651 14.878 42.9435 15.4909 42.5106 16.1701C42.2363 16.5959 41.7701 16.8901 41.1747 17.0869ZM31.7993 16.5847C32.2352 16.6295 32.7111 16.6854 33.2125 16.7451C36.5841 17.1388 41.2033 17.6776 42.2632 16.0173C42.6505 15.411 42.7574 14.9005 42.5949 14.4546C42.2744 13.5856 40.907 13.0688 39.7515 12.7165C38.4913 12.3318 34.1478 12.9753 30.9328 13.5047L30.8884 16.4866C31.196 16.519 31.5008 16.5523 31.7993 16.5847Z" fill="#263238"/>
    <path d="M37.0249 17.2547C37.2196 17.2665 37.4098 17.2737 37.6 17.2809L37.8563 12.4743C37.7307 12.4792 37.6033 12.4878 37.4704 12.4983C37.444 12.5009 37.414 12.5017 37.3876 12.5043C37.3521 12.5069 37.3139 12.5104 37.2784 12.513L37.0249 17.2547Z" fill="#263238"/>
    <path d="M34.4162 12.8255C34.367 12.8326 34.3151 12.8406 34.2651 12.845C34.1322 12.8645 33.9984 12.8813 33.8655 12.9009L33.6044 16.9323C33.7518 16.9475 33.9002 16.9655 34.0485 16.9835C34.0895 16.9882 34.1331 16.9921 34.1777 16.9987L34.448 12.8211C34.4371 12.8247 34.428 12.8246 34.4162 12.8255Z" fill="#263238"/>
    <path d="M40.8628 12.9462C40.7709 13.9057 40.5956 15.6483 40.3886 17.1394C40.5998 17.1001 40.8028 17.0543 40.9903 16.9984C41.1744 15.6398 41.3277 14.133 41.4168 13.1926C41.2422 13.1041 41.0548 13.0229 40.8628 12.9462Z" fill="#263238"/>
    <path d="M75.1062 55.0658C75.7432 55.1599 76.3808 55.5585 76.3808 55.5585C76.3808 55.5585 76.3556 56.3071 75.2629 57.9416C76.5638 58.5962 77.7718 59.318 78.1278 59.1485C78.827 58.8169 79.7397 54.8596 80.0728 53.732C80.4069 52.6071 81.3233 51.6584 80.9925 50.0435C80.6608 48.4258 79.7187 48.6367 79.5071 49.2154C79.2954 49.794 77.5597 52.031 76.4988 52.7899C75.437 53.546 74.6219 54.2145 74.6219 54.2145C74.6219 54.2145 74.4692 54.9717 75.1062 55.0658Z" fill="#F37630"/>
    <path d="M78.1448 59.2946C77.8007 59.4083 77.1184 59.0672 75.9741 58.4736C75.7221 58.3436 75.4583 58.2054 75.1926 58.0708C75.1562 58.0524 75.1271 58.0193 75.1172 57.98C75.1072 57.9406 75.1136 57.8958 75.1355 57.8612C75.9848 56.5904 76.1756 55.8663 76.2177 55.6361C76.0312 55.5302 75.5518 55.2804 75.0805 55.2107C74.8703 55.1797 74.712 55.0858 74.6029 54.9299C74.3902 54.6255 74.4707 54.1998 74.4771 54.1825C74.4844 54.1496 74.5017 54.1195 74.5281 54.0986C74.5354 54.0931 75.3578 53.4192 76.4123 52.6685C77.4642 51.9188 79.1671 49.7109 79.3705 49.1624C79.4918 48.8328 79.8005 48.6211 80.1236 48.6454C80.3475 48.6628 80.8906 48.8305 81.1335 50.0145C81.3755 51.1958 80.9871 52.0187 80.6096 52.8106C80.4546 53.1391 80.3078 53.4465 80.2101 53.7743C80.1471 53.9871 80.0613 54.3048 79.9609 54.6792C79.3564 56.9475 78.7639 59.0047 78.1876 59.2774C78.174 59.2819 78.1585 59.2901 78.1448 59.2946ZM75.4676 57.8855C75.686 57.9961 75.8988 58.1085 76.1072 58.2164C76.9204 58.6422 77.8419 59.1205 78.0622 59.0172C78.5676 58.7771 79.32 55.9573 79.6815 54.604C79.7838 54.226 79.8687 53.9054 79.9317 53.6927C80.0348 53.3448 80.1944 53.0118 80.3458 52.6907C80.7032 51.9389 81.0706 51.1625 80.8477 50.0755C80.7054 49.3883 80.4255 48.9629 80.0988 48.9369C79.9058 48.9214 79.7146 49.0578 79.638 49.2659C79.4209 49.8555 77.6897 52.1154 76.5787 52.906C75.6689 53.554 74.9358 54.1405 74.7545 54.2888C74.7444 54.3866 74.7342 54.6123 74.8424 54.7654C74.9051 54.8544 74.9979 54.906 75.1253 54.9248C75.785 55.0236 76.4281 55.4203 76.4554 55.4387C76.5009 55.4663 76.5263 55.5158 76.5217 55.5661C76.519 55.5944 76.4838 56.3311 75.4676 57.8855Z" fill="#263238"/>
    <path d="M80.3308 48.858C80.7177 50.8169 80.3265 51.6225 78.9277 54.7047C77.8353 57.1099 77.5566 58.4663 77.4905 59.1096C77.7798 59.1876 78.0009 59.2059 78.1248 59.1497C78.824 58.8181 79.7367 54.8608 80.0698 53.7332C80.4039 52.6083 81.3203 51.6596 80.9895 50.0447C80.8473 49.3484 80.5937 48.9935 80.3308 48.858Z" fill="white"/>
    <path d="M78.1368 59.2975C77.9866 59.3471 77.7664 59.3315 77.4543 59.2489C77.3851 59.2321 77.3388 59.1652 77.3488 59.0948C77.425 58.3538 77.7375 56.9801 78.798 54.6434L78.8791 54.4673C80.2068 51.5457 80.5624 50.761 80.1909 48.8853C80.1791 48.8313 80.2028 48.7748 80.2465 48.742C80.2902 48.7093 80.3494 48.705 80.4003 48.7308C80.6387 48.8561 80.9615 49.182 81.1337 50.0147C81.3756 51.1959 80.9872 52.0189 80.6097 52.8108C80.4547 53.1393 80.3079 53.4467 80.2103 53.7745C80.1473 53.9872 80.0615 54.305 79.961 54.6794C79.3566 56.9477 78.7641 59.0048 78.1878 59.2776C78.1723 59.2857 78.1559 59.2911 78.1368 59.2975ZM77.6502 58.9983C77.9277 59.0589 78.0315 59.0337 78.0624 59.0174C78.5677 58.7773 79.3201 55.9575 79.6817 54.6042C79.784 54.2261 79.8689 53.9056 79.9319 53.6929C80.035 53.345 80.1946 53.012 80.3459 52.6908C80.7033 51.9391 81.0708 51.1626 80.8478 50.0756C80.7681 49.6877 80.6564 49.4322 80.5473 49.2671C80.7943 50.9494 80.3612 51.9029 79.1384 54.5918L79.0572 54.7679C78.0314 57.0262 77.7335 58.3523 77.6502 58.9983Z" fill="#263238"/>
    <path d="M33.8565 46.118C33.8156 46.1316 33.7655 46.1268 33.7282 46.0965C33.6646 46.0505 33.6492 45.9581 33.6947 45.8943C33.6947 45.8943 33.9207 45.5789 34.2952 45.0622C34.3408 44.9984 34.4327 44.9832 34.4973 45.032C34.561 45.0779 34.5763 45.1703 34.5281 45.235C34.1526 45.7491 33.9303 46.0663 33.9303 46.0663C33.9084 46.0918 33.8839 46.109 33.8565 46.118Z" fill="white"/>
    <path d="M32.9947 46.9486C32.9947 46.9486 39.7081 37.0132 45.871 32.1311C52.0348 27.2516 54.9745 28.2084 55.3381 30.83C55.6989 33.4525 55.1468 42.4695 54.1411 47.6761C53.1355 52.8828 51.3387 61.4978 51.3387 61.4978C51.3387 61.4978 57.1905 65.757 57.7662 66.2796C58.3409 66.7995 55.7335 67.7648 54.4287 67.4832C53.3914 67.2594 53.4423 67.3584 51.153 66.738C47.2733 65.6867 46.818 64.9233 47.029 64.0402C47.7086 61.2109 48.8157 58.6668 48.5844 55.6024C48.1625 50.036 48.331 42.5897 48.8373 43.2327C48.8373 43.2327 46.7394 47.5817 42.4609 50.8236C38.1797 54.0664 34.8956 54.6797 31.8068 52.5201" fill="#73B4EA"/>
    <path d="M56.7024 67.3684C55.935 67.6221 54.9974 67.7552 54.3951 67.6284C54.092 67.564 53.8828 67.5265 53.6798 67.49C53.1939 67.4039 52.7335 67.3215 51.113 66.8822C47.2533 65.8365 46.6406 65.0367 46.8863 64.0111C47.0589 63.2869 47.2625 62.5738 47.4624 61.8863C48.053 59.8236 48.6099 57.8788 48.439 55.62C48.1781 52.1541 48.1044 46.8351 48.3605 44.3834C47.4509 45.8934 45.5118 48.6973 42.5438 50.9455C38.1442 54.2792 34.8055 54.8008 31.7176 52.644C31.6512 52.5989 31.6367 52.5092 31.6814 52.4427C31.726 52.3761 31.818 52.361 31.8816 52.407C34.8486 54.4819 38.0844 53.9608 42.3674 50.7144C45.7789 48.1307 47.8095 44.8061 48.4658 43.6205C48.5298 43.3008 48.6073 43.1046 48.702 43.0702C48.7348 43.0594 48.845 43.026 48.944 43.1517C48.9795 43.1948 48.984 43.2543 48.9612 43.3044C48.9576 43.3117 48.8709 43.4896 48.7014 43.7924C48.4497 45.414 48.3576 50.8092 48.7211 55.6029C48.8966 57.912 48.3306 59.8842 47.7354 61.9697C47.5382 62.6563 47.3364 63.3658 47.1647 64.0836C47.0021 64.7649 47.1762 65.5208 51.1851 66.6055C52.7929 67.0429 53.246 67.1216 53.7265 67.2096C53.9322 67.2452 54.1451 67.2845 54.4545 67.3498C55.54 67.582 57.4663 66.9301 57.6879 66.4913C57.7079 66.4512 57.707 66.4302 57.6679 66.3943C57.1059 65.8855 51.3123 61.6649 51.2532 61.6235C51.2059 61.5904 51.1841 61.5336 51.196 61.4779C51.2134 61.3929 53.0037 52.8044 53.9984 47.6563C55.0151 42.3912 55.5507 33.4436 55.1953 30.8558C55.0687 29.932 54.6197 29.2883 53.9028 28.9982C52.9575 28.613 50.6687 28.5256 45.9594 32.2511C39.8848 37.0615 33.1815 46.9356 33.1141 47.034C33.0694 47.1006 32.9811 47.1176 32.9147 47.0725C32.8483 47.0274 32.8311 46.9387 32.8757 46.8721C32.9432 46.7737 39.6729 36.8603 45.7812 32.0236C49.354 29.1947 52.2755 28.025 54.0077 28.729C54.8265 29.0615 55.3346 29.7831 55.4793 30.8168C55.8383 33.4247 55.3008 42.4216 54.2796 47.7096C53.3416 52.5709 51.691 60.5009 51.4963 61.4426C52.214 61.964 57.3127 65.6862 57.8602 66.1785C57.9947 66.3016 58.0265 66.4617 57.9462 66.6222C57.8031 66.895 57.306 67.169 56.7024 67.3684Z" fill="#73B4EA"/>
    <path d="M35.3646 44.0534C35.3209 44.0679 35.2726 44.0595 35.2335 44.0328C35.169 43.9841 35.1572 43.8935 35.2028 43.8297C36.6114 41.9415 38.6132 39.3546 40.1617 37.7613C40.2155 37.7039 40.3092 37.7034 40.3638 37.7585C40.422 37.8154 40.4219 37.9068 40.3672 37.9615C38.8305 39.5447 36.837 42.1198 35.4329 44.0035C35.4165 44.0272 35.3919 44.0444 35.3646 44.0534Z" fill="white"/>
    <path d="M46.416 46.8414C46.3778 46.854 46.3341 46.8502 46.2959 46.8263C46.2277 46.7848 46.2068 46.6943 46.2479 46.6259L47.9339 43.8722C47.9071 43.2961 47.7165 37.4948 50.2564 33.6029C50.301 33.5363 50.3884 33.5166 50.4548 33.5617C50.5212 33.6067 50.5412 33.6946 50.4965 33.7611C47.8883 37.7579 48.2197 43.8386 48.2242 43.8981C48.2251 43.9282 48.2196 43.9575 48.2032 43.9812L46.4962 46.7723C46.4752 46.8097 46.4488 46.8306 46.416 46.8414Z" fill="white"/>
    <path d="M55.0301 41.9046C55.0137 41.91 54.9937 41.9136 54.9746 41.9108C54.8945 41.9068 54.8354 41.838 54.8391 41.7575L54.9241 40.3372C54.9278 40.2568 54.9961 40.1977 55.0762 40.2017C55.1563 40.2057 55.2154 40.2745 55.2117 40.3549L55.1267 41.7752C55.1257 41.8364 55.0847 41.8865 55.0301 41.9046Z" fill="white"/>
    <path d="M55.1898 39.2347C55.1735 39.2401 55.1534 39.2436 55.1343 39.2408C55.0542 39.2368 54.9951 39.168 54.9989 39.0876L55.3046 33.9448C55.3083 33.8643 55.3766 33.8052 55.4567 33.8092C55.5368 33.8132 55.5959 33.882 55.5922 33.9624L55.2864 39.1053C55.2827 39.1674 55.2445 39.2166 55.1898 39.2347Z" fill="white"/>
    <path d="M54.4241 67.4878C55.728 67.7666 58.339 66.8032 57.7615 66.2842C57.1868 65.7644 51.3341 61.5023 51.3341 61.5023C51.3341 61.5023 51.8102 59.2216 52.4098 56.2969C50.5756 56.6503 49.3392 56.2273 48.5869 55.7569C48.7718 58.7544 47.6948 61.2611 47.0243 64.0447C46.8133 64.9279 47.2686 65.6913 51.1484 66.7426C53.4376 67.3629 53.3867 67.264 54.4241 67.4878Z" fill="#FEDEA5"/>
    <path d="M56.7024 67.3685C55.935 67.6222 54.9974 67.7553 54.3951 67.6284C54.0921 67.5641 53.8828 67.5266 53.6798 67.4901C53.1939 67.404 52.7335 67.3216 51.113 66.8823C47.2533 65.8366 46.6406 65.0368 46.8863 64.0112C47.0598 63.2898 47.2616 62.5803 47.4588 61.8937C48.0366 59.8748 48.5816 57.9674 48.4452 55.7673C48.4425 55.7134 48.4681 55.6623 48.5163 55.6341C48.5618 55.6069 48.6192 55.6062 48.6656 55.6366C49.3569 56.0692 50.5624 56.5085 52.3847 56.156C52.4329 56.1462 52.4802 56.161 52.513 56.1959C52.5457 56.2308 52.562 56.2802 52.5502 56.3268C52.0219 58.908 51.5878 60.986 51.4954 61.4399C52.2131 61.9613 57.3118 65.6835 57.8593 66.1758C57.9938 66.2989 58.0256 66.459 57.9453 66.6196C57.8031 66.8951 57.306 67.169 56.7024 67.3685ZM48.7453 56.0154C48.8272 58.1513 48.2968 60.0112 47.7363 61.9725C47.5409 62.6555 47.3392 63.365 47.1665 64.0801C47.0039 64.7614 47.178 65.5172 51.187 66.602C52.7947 67.0393 53.2479 67.118 53.7283 67.206C53.934 67.2416 54.1469 67.2809 54.4563 67.3462C55.5418 67.5784 57.4682 66.9266 57.6897 66.4878C57.7098 66.4476 57.7089 66.4266 57.6698 66.3908C57.1078 65.8819 51.3141 61.6613 51.255 61.6199C51.2077 61.5868 51.1859 61.53 51.1978 61.4743C51.1978 61.4743 51.652 59.3014 52.2279 56.479C50.6122 56.7418 49.4712 56.4061 48.7453 56.0154Z" fill="#263238"/>
    <path d="M51.3345 61.5024C51.3345 61.5024 50.8805 61.3478 50.6668 62.2318C50.453 63.1159 50.4214 63.9367 50.4214 63.9367L47.5133 62.2231C47.3417 62.822 47.1719 63.4265 47.0248 64.0448C46.8138 64.9279 47.2691 65.6914 51.1488 66.7426C53.4381 67.363 53.3872 67.2641 54.4245 67.4879C55.7284 67.7667 58.3395 66.8032 57.762 66.2843C57.1864 65.7617 51.3345 61.5024 51.3345 61.5024Z" fill="#F37630"/>
    <path d="M56.7025 67.3684C55.9351 67.622 54.9975 67.7552 54.3952 67.6283C54.0922 67.5639 53.8829 67.5265 53.68 67.49C53.194 67.4038 52.7336 67.3214 51.1131 66.8822C47.2534 65.8365 46.6407 65.0367 46.8864 64.0111C47.0408 63.3691 47.2206 62.7308 47.3758 62.183C47.3886 62.1391 47.4196 62.1045 47.4596 62.0882C47.5024 62.071 47.5461 62.0749 47.587 62.0979L50.295 63.6918C50.3198 63.382 50.3804 62.8045 50.5275 62.1954C50.6234 61.7981 50.782 61.5355 50.9996 61.4148C51.1944 61.3078 51.3627 61.3588 51.38 61.3652C51.3937 61.3699 51.4082 61.3772 51.4201 61.3855C51.6593 61.5593 57.2846 65.6558 57.8594 66.1757C57.9939 66.2988 58.0257 66.4589 57.9454 66.6194C57.8032 66.8949 57.3061 67.1689 56.7025 67.3684ZM47.6004 62.4408C47.458 62.9448 47.2991 63.5091 47.163 64.0781C47.0004 64.7594 47.1745 65.5152 51.1834 66.6C52.7912 67.0374 53.2443 67.1161 53.7248 67.204C53.9305 67.2396 54.1434 67.2789 54.4528 67.3442C55.5383 67.5765 57.4646 66.9246 57.6862 66.4858C57.7062 66.4456 57.7053 66.4246 57.6662 66.3888C57.1215 65.8956 51.6944 61.9407 51.2751 61.6345C51.2497 61.6307 51.1932 61.6341 51.1295 61.6704C51.033 61.7267 50.8972 61.8752 50.8041 62.2624C50.5967 63.1199 50.5651 63.9316 50.5642 63.938C50.5623 63.9873 50.5322 64.0338 50.4894 64.0602C50.4457 64.0837 50.3911 64.0835 50.3465 64.0586L47.6004 62.4408Z" fill="#F37630"/>
    <path d="M51.1501 66.7426C53.4394 67.3629 53.3885 67.264 54.4258 67.4878C55.5997 67.7396 57.8282 66.9847 57.846 66.4518C53.6276 67.6023 49.0945 65.4174 47.0005 64.1872C46.8724 65.0095 47.4797 65.747 51.1501 66.7426Z" fill="white"/>
    <path d="M56.6801 67.3817C55.9345 67.6281 55.0225 67.765 54.3956 67.628C54.0926 67.5636 53.8833 67.5262 53.6804 67.4896C53.1944 67.4035 52.734 67.3211 51.1135 66.8818C47.3793 65.8677 46.7166 65.0906 46.8557 64.1642C46.8639 64.1158 46.8931 64.0757 46.935 64.0558C46.9796 64.0349 47.0287 64.037 47.0706 64.0627C49.3183 65.3823 53.7004 67.4312 57.805 66.3122C57.8496 66.3006 57.8951 66.3099 57.9315 66.3375C57.9679 66.365 57.9888 66.4099 57.986 66.4565C57.9813 66.5982 57.8893 66.7414 57.7135 66.8787C57.4804 67.0623 57.1062 67.2408 56.6801 67.3817ZM47.1276 64.4277C47.1553 64.9883 47.7408 65.6691 51.1875 66.6015C52.7952 67.0389 53.2484 67.1176 53.7288 67.2055C53.9345 67.2411 54.1474 67.2804 54.4568 67.3457C55.324 67.5313 56.8605 67.1392 57.4871 66.6885C53.5165 67.5804 49.3899 65.7272 47.1276 64.4277Z" fill="#263238"/>
</svg>
